<?xml version="1.0" encoding="UTF-8" standalone="no"?>
<!-- Created with Inkscape (http://www.inkscape.org/) -->

<svg
   xmlns:dc="http://purl.org/dc/elements/1.1/"
   xmlns:cc="http://creativecommons.org/ns#"
   xmlns:rdf="http://www.w3.org/1999/02/22-rdf-syntax-ns#"
   xmlns:svg="http://www.w3.org/2000/svg"
   xmlns="http://www.w3.org/2000/svg"
   xmlns:sodipodi="http://sodipodi.sourceforge.net/DTD/sodipodi-0.dtd"
   xmlns:inkscape="http://www.inkscape.org/namespaces/inkscape"
   width="256.10757"
   height="500.8688"
   id="svg2"
   version="1.1"
   inkscape:version="0.91 r13725"
   sodipodi:docname="apatosaur.svg"
   inkscape:export-filename="/home/substack/media/vector/apatosaur.png"
   inkscape:export-xdpi="143.73413"
   inkscape:export-ydpi="143.73413">
  <defs
     id="defs4" />
  <sodipodi:namedview
     id="base"
     pagecolor="#ffffff"
     bordercolor="#666666"
     borderopacity="1.0"
     inkscape:pageopacity="0.0"
     inkscape:pageshadow="2"
     inkscape:zoom="0.70710678"
     inkscape:cx="-126.75157"
     inkscape:cy="229.27836"
     inkscape:document-units="px"
     inkscape:current-layer="layer1"
     showgrid="false"
     inkscape:window-width="1364"
     inkscape:window-height="766"
     inkscape:window-x="1"
     inkscape:window-y="1"
     inkscape:window-maximized="0"
     fit-margin-top="0"
     fit-margin-left="0"
     fit-margin-right="0"
     fit-margin-bottom="0" />
  <metadata
     id="metadata7">
    <rdf:RDF>
      <cc:Work
         rdf:about="">
        <dc:format>image/svg+xml</dc:format>
        <dc:type
           rdf:resource="http://purl.org/dc/dcmitype/StillImage" />
        <dc:title></dc:title>
      </cc:Work>
    </rdf:RDF>
  </metadata>
  <g
     inkscape:label="Layer 1"
     inkscape:groupmode="layer"
     id="layer1"
     transform="translate(-167.48515,-70.812299)">
    <path
       style="fill:#ffffff;fill-opacity:0;stroke:#000000;stroke-width:2;stroke-linecap:butt;stroke-linejoin:miter;stroke-miterlimit:4;stroke-dasharray:none;stroke-opacity:1"
       d="m 209.06012,115.7521 c -3.85163,-4.65907 4.29315,-5.8968 4.29315,-0.75762"
       id="path4302"
       inkscape:connector-curvature="0" />
    <path
       style="fill:#ffffff;fill-opacity:0;stroke:#000000;stroke-width:2;stroke-linecap:butt;stroke-linejoin:miter;stroke-miterlimit:4;stroke-dasharray:none;stroke-opacity:1"
       d="m 216.73729,115.12075 c -0.16836,-0.33672 -0.8418,-0.8418 -0.50508,-1.01015 0.33672,-0.16836 0.50508,1.38661 0.50508,1.01015 0,-0.71643 -1.54833,-3.2499 -0.75762,-4.04061 0.72467,-0.72467 3.83914,-1.21162 4.54569,-0.50508 0.62519,0.62519 0.69418,2.14597 1.01015,2.77792"
       id="path4304"
       inkscape:connector-curvature="0" />
    <path
       style="fill:#ffffff;fill-opacity:0;stroke:#000000;stroke-width:2;stroke-linecap:butt;stroke-linejoin:miter;stroke-miterlimit:4;stroke-dasharray:none;stroke-opacity:1"
       d="m 223.32853,112.02715 c -3.09442,-4.66554 4.40679,-5.55981 4.40679,-1.60361"
       id="path4306"
       inkscape:connector-curvature="0"
       sodipodi:nodetypes="cc" />
    <path
       style="fill:#ffffff;fill-opacity:0;stroke:#000000;stroke-width:2;stroke-linecap:butt;stroke-linejoin:miter;stroke-miterlimit:4;stroke-dasharray:none;stroke-opacity:1"
       d="m 201.76177,103.52925 c -1.95995,5.69339 5.50534,5.76533 4.88662,1.61624"
       id="path4308"
       inkscape:connector-curvature="0"
       sodipodi:nodetypes="cc" />
    <path
       style="fill:#ffffff;fill-opacity:0;stroke:#000000;stroke-width:2;stroke-linecap:butt;stroke-linejoin:miter;stroke-miterlimit:4;stroke-dasharray:none;stroke-opacity:1"
       d="m 208.08785,105.25914 c -0.18673,8.32718 7.70646,3.59156 5.08864,0.49245"
       id="path4310"
       inkscape:connector-curvature="0"
       sodipodi:nodetypes="cc" />
    <path
       style="fill:#ffffff;fill-opacity:0;stroke:#000000;stroke-width:2;stroke-linecap:butt;stroke-linejoin:miter;stroke-miterlimit:4;stroke-dasharray:none;stroke-opacity:1"
       d="m 215.51248,105.00659 c -1.52225,6.71734 7.92187,3.09058 5.4927,-1.06065"
       id="path4312"
       inkscape:connector-curvature="0"
       sodipodi:nodetypes="cc" />
    <path
       style="fill:#ffffff;fill-opacity:0;stroke:#000000;stroke-width:2;stroke-linecap:butt;stroke-linejoin:miter;stroke-miterlimit:4;stroke-dasharray:none;stroke-opacity:1"
       d="m 224.768,104.07221 c -0.035,4.47669 4.79822,3.33929 4.79822,-0.75761"
       id="path4314"
       inkscape:connector-curvature="0"
       sodipodi:nodetypes="cc" />
    <path
       style="fill:#ffffff;fill-opacity:0;stroke:#000000;stroke-width:2;stroke-linecap:butt;stroke-linejoin:miter;stroke-miterlimit:4;stroke-dasharray:none;stroke-opacity:1"
       d="m 403.78125,366.625 c 3.04843,12.30783 6.00804,26.30192 7.1875,37.84375 1.28494,12.57399 3.0424,27.62717 3.09375,41.78125 17.39569,-23.2965 5.25839,-57.77003 -10.28125,-79.625 z m -45.375,83.28125 c -1.75738,4.08105 -3.81574,8.97524 -4.5625,10.46875 -2.88718,5.77437 -5.90847,20.03346 -9.09375,23.21875 -0.27162,0.27162 -0.60429,1.83734 -0.9375,4.125 6.60267,-3.14599 13.84297,-6.48861 21.09375,-9.96875 -4.65076,-6.68307 -2.3554,-13.66346 -2.5625,-15.1875 -0.20841,-1.53368 -2.60363,-5.88936 -3.9375,-12.65625 z M 172.625,454.25 c -2.55682,-0.0568 -4.57542,0.45583 -4.0625,0.96875 L 182.84375,469.5 c 4.16713,4.16713 14.5373,7.38106 18.59375,11.4375 2.15666,2.15666 9.15201,2.02701 11.40625,4.28125 3.32302,3.32301 28.12417,4.9686 38.625,8.0625 0.57862,-3.54452 1.35577,-2.55316 0.74513,-3.9042 -2.05464,-4.54591 0.71592,-17.23542 4.16112,-18.99929 1.34109,-0.68661 0.66094,-2.40693 0.34375,-4.94026 -11.88369,0.65698 -21.48939,1.67689 -23.875,4.0625 -2.23053,2.23054 -8.55358,-2.16071 -10,-1.4375 -5.12583,2.56291 -38.51529,-7.07779 -42.84375,-11.40625 -1.71422,-1.71422 -4.81818,-2.34943 -7.375,-2.40625 z m 128.8125,15.9375 c -4.65364,7.67343 -3.74539,13.38436 -7.6875,17.96875 -1.29312,1.29312 -0.84845,5.17675 -1.09375,8.09375 2.11664,0.099 4.418,0.1445 6.6875,0.0937 0.84396,-9.02292 1.3472,-16.02435 0.96875,-16.78125 -1.47744,-2.95489 2.54634,-6.53232 1.125,-9.375 z"
       id="path4298"
       inkscape:connector-curvature="0"
       sodipodi:nodetypes="cscccssccscssssscsscssssccccscc" />
    <path
       style="fill:#ffffff;fill-opacity:0;stroke:#000000;stroke-width:2;stroke-linecap:butt;stroke-linejoin:miter;stroke-miterlimit:4;stroke-dasharray:none;stroke-opacity:1"
       d="m 354.4375,459.09375 c -0.22528,0.49984 -0.45198,0.99771 -0.59375,1.28125 -2.88718,5.77437 -5.90847,20.03346 -9.09375,23.21875 -0.24011,0.24011 -0.52247,1.49559 -0.8125,3.34375 2.98095,-4.36109 5.58217,-13.92593 8.59375,-16.9375 1.22222,-1.22222 0.46409,-4.46409 1.53125,-5.53125 0.69006,-0.69006 0.66833,-2.92726 0.375,-5.375 z m -10.9375,31.125 c -1.05504,8.54948 -2.24229,23.47162 -3,35 1.56438,-0.59877 3.05529,-1.27404 3.96875,-2.1875 1.40724,-1.40724 2.20783,-10.47816 3.53125,-13.125 1.77138,-3.54275 -0.12659,-13.34695 -1.53125,-16.15625 -0.5916,-1.1832 -2.05006,-2.43762 -2.96875,-3.53125 z M 298.46875,505.25 c -0.32735,0.33307 -0.64499,0.71422 -0.96875,1.125 -3.53453,4.54325 -4.01543,9.10958 -3.03125,10.09375 0.76763,0.76763 1.70912,1.05736 2.6875,1.125 0.45818,-4.17829 0.89802,-8.29746 1.3125,-12.34375 z"
       id="path5593"
       inkscape:connector-curvature="0" />
    <path
       style="fill:#ffffff;fill-opacity:0;stroke:#000000;stroke-width:2;stroke-linecap:butt;stroke-linejoin:miter;stroke-miterlimit:4;stroke-dasharray:none;stroke-opacity:1"
       d="m 230.375,71.8125 c -2.72552,-0.01251 -5.31672,0.546568 -7.6875,2.03125 -2.7601,2.167605 -3.92795,2.979446 -6.8125,5.8125 -3.27045,-0.0081 -15.71594,5.533507 -21.5625,10.125 -0.70437,0.553171 -5.85439,4.124973 -4.75,5.53125 l 2.21875,2.8125 c 0.63229,0.805121 14.80447,8.61315 20.53125,7.9375 12.22243,-1.44199 18.15655,-3.8694 19.59375,-3.0625 0.5322,2.04094 -0.52491,3.54076 -3.03125,6.5625 -0.46594,0.54139 -6.81864,2.41212 -10.0625,4.46875 -1.62477,1.18655 -9.73886,0.17326 -11.71875,2.5625 -0.0986,2.58086 1.71528,1.82292 4.28125,4.03125 1.21807,1.04829 6.26748,1.01964 7.78125,0.90625 4.30568,-0.32254 24.73532,-7.68392 30.53125,-10.6875 3.39925,3.95277 5.86823,10.03716 4.875,19.15625 -0.65836,7.86221 -5.00052,22.74348 -13.5625,35.0625 -15.83255,22.25924 -29.15517,45.67433 -22.5625,84.75 1.88996,13.70072 1.82855,29.54127 5.21875,43.15625 1.45674,2.73841 4.86875,13.45658 9.625,22.5 -0.19504,4.02245 -0.17344,7.56432 0.65625,8.3125 1.38179,1.24604 3.00599,5.04362 4.90625,9.625 -0.0485,1.24441 -0.0959,2.45154 -0.15625,3.71875 -1.67595,35.17077 -0.44833,62.92302 7.53125,81.03125 l 0.6875,-0.21875 c 0.95491,4.55906 1.69223,8.91098 4.40625,11.625 0.84522,0.84522 1.4874,16.09981 3.03125,19.1875 1.51039,3.02078 -0.49389,8.07472 1.03125,11.125 0.84958,1.69917 1.7981,6.81113 1.46875,10.09375 -0.37777,0.29471 -0.76219,0.60594 -1.125,0.96875 -1.49945,1.49946 -2.58231,7.58231 -3.5625,8.5625 -0.98339,0.98339 -0.71875,3.01268 -0.71875,5 0,1.94236 0.22386,3.38372 0.65625,4.46875 -0.74445,5.38634 -1.48073,10.68021 -3.8125,15.34375 -1.90952,3.81903 0.83227,8.46046 -1,12.125 -2.7098,5.4196 -5.61518,8.64642 -9.09375,12.125 -0.70667,0.70666 -7.63526,11.55224 -6.0625,13.125 0.28511,0.28511 0.59763,0.52068 0.90625,0.75 0.43346,-1.9115 0.53853,-3.36214 2.34375,-5.1875 4.20477,-6.91935 7.79152,2.90527 7.1875,6.5 3.61111,-0.75913 6.55914,-2.25336 6.75,-2.0625 0.87168,0.87168 1.80392,2.68274 2.875,4.5 0.0184,-0.11054 0.0184,-0.22438 0.0625,-0.3125 1.20476,-2.40951 1.42836,-3.96952 2.25,-3.75 3.96192,-3.16954 6.48631,4.54059 6.53125,7.875 0.45432,-0.33218 0.9141,-0.75785 1.40625,-1.25 1.25531,-1.25532 2.03318,-6.0625 5.0625,-6.0625 0.23675,0 1.6458,1.13634 2.96875,2.25 -0.005,-0.91886 0.22262,-1.94524 0.78125,-3.0625 0.87418,-1.74836 2.65293,-2.26767 2.5,-2 3.71187,-1.48475 3.91934,4.26719 3.34375,6.46875 6.44223,-4.80764 -0.13194,-4.6366 6.9375,-3.9375 -0.6538,-0.92823 -0.92683,-1.88567 -0.53125,-2.28125 1.26221,-1.26221 1.49583,-2.69338 2.5,-2.25 0.82098,-0.32839 1.53439,-0.30667 2.125,-0.0625 -1.45643,-1.98236 -3.31371,-3.90866 -3.46875,-4.21875 -2.20089,-4.40179 7.0625,-24.51202 7.0625,-30.28125 0,-0.61643 -0.39359,-3.6689 0,-4.0625 1.92254,-1.92254 0.16687,-9.22937 2.03125,-11.09375 3.94211,-4.58439 3.03386,-10.29532 7.6875,-17.96875 1.42134,2.84268 -2.60244,6.42011 -1.125,9.375 1.25317,2.50635 -6.75805,70.4143 -7.0625,70.71875 -0.45262,0.45263 -9.28201,8.87423 -7.0625,11.09375 0.32193,0.32193 0.83284,0.45956 1.4375,0.46875 -0.33099,-0.84508 -0.27831,-1.91212 0.375,-3.21875 1.12546,-2.25093 3.71237,-3.4702 4,-3.5 3.37745,-2.02647 5.39279,2.13342 5.15625,5.28125 0.34116,0.18331 0.56891,0.47633 0.65625,0.9375 0.31457,1.66089 1.31851,3.16101 2.65625,4.28125 -0.41007,-1.5296 -0.0334,-3.37062 0.78125,-5 1.04774,-2.0955 1.24677,-1.09486 1.5,-2 1.1264,0 2.99754,-0.75245 4,0.25 0.90562,0.90563 3.03869,4.83636 2.9375,7.0625 3.2193,-2.99171 3.76888,1.09433 6.4375,2.40625 -0.073,-0.4368 -0.13546,-0.91755 -0.28125,-1.5625 -0.1828,-0.80864 0.0878,-1.77482 0.625,-2.40625 0.38639,-0.45415 0.0823,-1.48334 0.46875,-1.9375 1.44947,-1.70358 1.62747,-2.13429 2.09375,-2.3125 4.2118,-0.59001 5.68679,6.26729 5.25,8.65625 3.72096,-0.68517 4.25398,-2.91384 4.3125,-5.875 0.0196,-0.99358 3.38444,0.35276 7.09375,0.5 -0.13487,-0.18754 -0.2763,-0.37005 -0.4375,-0.53125 -0.34258,-0.34258 1.58321,-5.83321 1.75,-6 0.57309,-0.57309 1.96002,0.034 2.5,0.25 1.38277,1.4828 0.74887,0.93012 0.25,0.46875 0.18331,0.18735 0.31207,0.34332 1,1.03125 0.71539,0.71539 1.31861,1.64899 1.65625,2.59375 2.41252,-3.10008 -3.20919,-8.42794 -3.71875,-8.9375 -2.05019,-2.05019 1.03125,-10.04643 1.03125,-12.09375 0,-6.11161 3.32161,-54.88412 5.03125,-56.59375 3.18528,-3.18529 6.20657,-17.44438 9.09375,-23.21875 0.74676,-1.49351 2.80512,-6.3877 4.5625,-10.46875 1.33387,6.76689 2.73747,11.67874 3.9375,12.65625 0.0104,0.008 0.021,0.0224 0.0312,0.0312 -0.89376,5.41297 0.10379,11.18038 2.5,14.46875 0.64649,14.29784 -0.26315,33.87971 -0.4375,34.09375 -1.06534,1.30786 -13.75979,9.13894 -13.65625,13.875 0.0196,0.89655 0.42291,1.51759 1.0625,1.9375 -0.0536,-0.66215 0.12125,-1.30875 0.65625,-1.84375 0.12525,-0.12525 0.0861,-0.8361 0.25,-1 0.68793,-0.68793 0.81669,-0.8439 1,-1.03125 -0.49887,0.46137 -1.13277,1.01405 0.25,-0.46875 4.50724,-1.80289 6.83157,1.9615 5.53125,5.28125 0.97704,0.0662 1.49865,0.25572 0.96875,0.90625 -0.0958,0.11767 -0.61419,0.71422 -0.84375,1.4375 0.44209,-0.87193 1.26812,-1.72374 1.59375,-2.375 0.20075,-0.4015 0.32627,-0.56272 0.5,-0.75 l 0,-0.0312 c 0.18432,-0.19506 0.44435,-0.4131 1,-0.96875 4.05084,-1.62034 5.94839,4.73787 6,7.65625 1.45055,-0.42032 2.99216,-1.36442 4.59375,-3.25 0.34711,-0.40866 0.57101,-0.0825 0.75,0.53125 0.91637,-0.9917 1.8055,-1.59169 1.90625,-1.1875 3.68055,-0.73611 2.5447,2.0447 4,3.5 0.0443,0.37815 0.0971,0.83719 0.125,1.3125 2.84432,-2.27446 5.69817,-6.10575 6.25,-5.65625 0.81132,0.66088 0.37141,2.85029 0.25,4.65625 0.10261,-0.35576 0.21607,-0.65356 0.375,-0.8125 1.12181,-1.1218 2.54351,-3.00744 2.25,-2.25 3.1984,-1.27936 7.20072,3.54928 4.75,6 -0.0897,0.0898 -0.15172,0.20002 -0.1875,0.34375 3.31499,-0.33033 6.68639,-1.28241 7.5,-2.28125 1.69119,-2.07616 5.85809,-29.09138 0.90625,-33.125 -0.15664,-0.1276 -3.29241,-0.75561 -1.71875,-2.6875 2.36145,-2.89902 1.18111,-9.45402 4.375,-13.375 13.62848,-16.7309 8.8108,-54.44312 6.09375,-81.03125 -1.62115,-15.86406 -6.61212,-36.38392 -10.5625,-50.75 0.62445,-17.07487 -1.1295,-32.88847 -8.15625,-53.96875 -1.63967,-4.91899 -12.50525,-27.32827 -16.1875,-38.375 -6.20947,-18.62843 -10.34723,-43.69097 -22.21875,-55.5625 -3.68237,-3.68237 -9.76543,-5.17124 -15.9375,-5.25 -1.26808,-0.0162 -2.52727,0.0295 -3.78125,0.125 -2.28337,1.20823 -4.84095,0.82729 -7.25,1.1875 -0.0193,0.005 -0.0433,-0.005 -0.0625,0 -0.0209,0.003 -0.0416,-0.003 -0.0625,0 -0.75286,0.19589 -1.46647,0.42526 -2.15625,0.65625 -0.60416,0.29458 -1.19282,0.69282 -1.75,1.25 l -20,20 c -3.22679,3.22678 -2.85118,10.03869 -5.6875,12.875 -7.57933,7.57933 -10.06557,22.22975 -10.65625,35.875 -0.066,-0.0736 -0.12015,-0.14542 -0.1875,-0.21875 -0.87757,-0.95555 -1.87066,-1.87102 -3.0625,-2.71875 -0.48741,0.0822 -0.91166,0.0761 -1.28125,0 -0.36959,-0.0761 -0.68924,-0.23726 -0.96875,-0.4375 -0.55902,-0.40048 -0.9474,-0.99508 -1.3125,-1.6875 -0.3651,-0.69242 -0.70069,-1.47615 -1.09375,-2.1875 -0.39306,-0.71135 -0.8571,-1.35522 -1.5,-1.8125 -1.13297,-0.80586 -1.98726,-1.62949 -2.9375,-2.4375 6.42011,-20.2142 19.05307,-41.48616 28.625,-52.59375 -10.63655,6.35432 -28.91095,18.97521 -35.8125,25.65625 -1.49676,0.99784 -2.88196,2.02403 -4.21875,3.0625 -0.58361,-4.43924 -1.06762,-9.38218 -2.03125,-15.09375 -3.32586,-19.71281 13.06013,-29.88909 18.40625,-44.65625 2.37457,-6.55908 8.03299,-20.37379 10.6875,-29.0625 1.54927,-5.07102 4.31925,-13.16918 5.09375,-19.1875 0.83483,-3.31112 1.65526,-22.00941 -1.71875,-25.15625 -4.56246,-5.874832 -9.72344,-12.186169 -12.625,-14.25 -2.71134,-1.928525 -11.44758,-7.12551 -22.28125,-11.25 -0.003,-0.0013 0.003,-0.02995 0,-0.03125 -1.50451,-1.423387 -4.25003,-1.243324 -6.34375,-2.625 -3.44599,-2.274049 -11.55333,-4.245865 -16.53125,-3.46875 -1.71084,-0.340527 -3.39594,-0.554994 -5.03125,-0.5625 z"
       id="path3111"
       inkscape:connector-curvature="0" />
    <path
       style="fill:#ffffff;fill-opacity:0;stroke:#000000;stroke-width:2;stroke-linecap:butt;stroke-linejoin:miter;stroke-miterlimit:4;stroke-dasharray:none;stroke-opacity:1"
       d="m 300.3125,479.5625 c 2.69644,-12.4958 2.86122,-43.04947 -8.59375,-37.375"
       id="path3194"
       inkscape:connector-curvature="0"
       sodipodi:nodetypes="cc" />
    <path
       style="fill:#ffffff;fill-opacity:0;stroke:#3c4b45;stroke-width:2;stroke-linecap:round;stroke-linejoin:round;stroke-miterlimit:4;stroke-dasharray:none;stroke-opacity:1"
       d="m 390,463.79076 c -0.22632,13.79776 -5.51142,15 -18.57143,15 -1.47893,0 -4.76784,0.23215 -5.71429,-0.71429 -5.74686,-5.74686 -5.36652,-24.17707 5.71429,-27.85714 11.86029,7.0952 -8.7695,10.51622 -0.71429,18.57143 0.86387,0.86387 1.90238,2.14286 3.57143,2.14286"
       id="path4402"
       inkscape:connector-curvature="0"
       sodipodi:nodetypes="csscsc" />
    <path
       style="fill:#ffffff;fill-opacity:0;stroke:#000000;stroke-width:2;stroke-linecap:round;stroke-linejoin:round;stroke-miterlimit:4;stroke-dasharray:none;stroke-opacity:1"
       d="m 353.84375,460.375 c 1.04272,-2.08543 4.6257,-10.85882 6.40625,-14.6875 5.08964,-1.59404 6.80606,-7.61856 7.75,-8.5625 0.71738,-0.71738 1.60265,-1.48818 2.625,-2.28125 0.72946,-0.94277 1.49658,-1.85362 2.40625,-2.75 10.01574,-9.86937 7.77097,-17.86552 15.15625,-28.28125"
       id="path3080"
       inkscape:connector-curvature="0"
       sodipodi:nodetypes="ccscsc" />
    <path
       style="fill:#ffffff;fill-opacity:0;stroke:#000000;stroke-width:2;stroke-linecap:butt;stroke-linejoin:miter;stroke-miterlimit:4;stroke-dasharray:none;stroke-opacity:1"
       d="m 328.5,192.25 c -7.66045,-1.46348 -20.53534,10.72284 -22.78125,12.96875 -9.7512,9.7512 -24.46211,33.45638 -31.5625,55.8125 0.95024,0.80801 1.80453,1.63164 2.9375,2.4375 0.6429,0.45728 1.10694,1.10115 1.5,1.8125 0.39306,0.71135 0.72865,1.49508 1.09375,2.1875 0.3651,0.69242 0.75348,1.28702 1.3125,1.6875 0.27951,0.20024 0.59916,0.36143 0.96875,0.4375 0.36959,0.0761 0.79384,0.0822 1.28125,0 1.19184,0.84773 2.18493,1.7632 3.0625,2.71875 0.0673,0.0733 0.1215,0.14512 0.1875,0.21875 0.59068,-13.64525 3.07692,-28.29567 10.65625,-35.875 2.83632,-2.83631 2.46071,-9.64822 5.6875,-12.875 l 20,-20 c 3.83849,-3.83849 8.97594,-0.38218 12.875,-4.28125 0.30936,-0.30935 -3.86757,-5.30507 -4.28125,-5.71875 -0.83455,-0.83455 -1.84315,-1.32218 -2.9375,-1.53125 z"
       id="path3998"
       inkscape:connector-curvature="0" />
    <path
       sodipodi:type="inkscape:offset"
       inkscape:radius="-0.90616661"
       inkscape:original="M 332.6875 196.40625 C 331.29927 196.24316 329.67149 196.79037 328.15625 197.5625 C 325.10376 198.67277 322.24312 200.31177 319.84375 202.5 C 316.73295 203.88381 313.18193 204.21139 310.71875 206.8125 C 307.31702 208.42486 304.64213 211.08042 302.40625 214.0625 C 299.92352 216.7212 297.47368 219.43858 297.3125 223.25 C 296.12843 226.03894 294.6739 228.7578 292.65625 231.03125 C 292.05502 234.28197 291.16431 237.4612 289.28125 240.25 C 284.84915 248.38441 280.09348 257.54015 282.09375 267.09375 C 283.38404 270.5775 284.32758 274.05463 284.96875 277.5625 C 285.38484 278.02248 285.70905 278.72077 286.40625 278.78125 C 286.47685 266.85881 287.28746 254.49733 292.375 243.53125 C 293.72354 240.29685 296.2774 237.83591 298.28125 235.0625 C 300.2127 230.95686 300.1401 225.68557 303.96875 222.65625 C 310.52352 216.16693 316.95991 209.55895 323.59375 203.15625 C 327.17817 200.47337 332.51095 202.99117 335.71875 199.5 C 335.21313 197.43012 334.07573 196.56934 332.6875 196.40625 z "
       style="fill:#ffffff;fill-opacity:0;stroke:none;stroke-width:2;stroke-miterlimit:4;stroke-dasharray:none"
       id="path5483"
       d="m 332.58203,197.30664 c -1.07342,-0.12611 -2.57803,0.33093 -4.01367,1.0625 a 0.90625723,0.90625723 0 0 1 -0.10156,0.0449 c -2.95418,1.07451 -5.71086,2.65747 -8.01172,4.75586 a 0.90625723,0.90625723 0 0 1 -0.24219,0.1582 c -3.29626,1.46631 -6.64561,1.79445 -8.83594,4.10743 a 0.90625723,0.90625723 0 0 1 -0.26953,0.19531 c -3.21989,1.52617 -5.79388,4.06348 -7.97656,6.97461 a 0.90625723,0.90625723 0 0 1 -0.0625,0.0762 c -2.47547,2.65092 -4.70404,5.1651 -4.84961,8.60742 a 0.90625723,0.90625723 0 0 1 -0.0723,0.31446 c -1.17093,2.75801 -2.63703,5.47338 -4.65429,7.80859 -0.61118,3.23155 -1.51518,6.46694 -3.45899,9.3457 l 0.043,-0.0742 c -4.42226,8.11636 -9.00344,17.05265 -7.09765,26.20313 1.13388,3.07814 1.96304,6.15726 2.59375,9.25195 0.18218,-11.1438 1.17726,-22.61796 5.97265,-32.96679 1.42803,-3.41717 4.00497,-5.90745 5.93555,-8.55665 0.8839,-1.90305 1.35415,-4.17888 2.07031,-6.43359 0.7229,-2.27594 1.73839,-4.56124 3.85547,-6.23633 l -0.0742,0.0664 c 6.54697,-6.4816 12.98555,-13.09215 19.63281,-19.50781 a 0.90625723,0.90625723 0 0 1 0.0859,-0.0723 c 2.07367,-1.55211 4.53392,-1.56464 6.6875,-1.70508 1.93684,-0.1263 3.53532,-0.43827 4.83789,-1.55273 -0.45297,-1.23149 -1.07441,-1.75914 -1.99414,-1.86719 z" />
    <path
       id="path4637"
       style="fill:#ffffff;fill-opacity:0;stroke:#3c4b45;stroke-width:2;stroke-linecap:round;stroke-linejoin:round;stroke-miterlimit:4;stroke-dasharray:none;stroke-opacity:1"
       d="m 276.4375,232.375 c -4.94147,0 -9.43717,4.78096 -12.75,9.625 0.24216,1.30684 0.35855,2.80809 0.6875,4.03125 0.14048,0.52236 0.36994,0.99099 0.53125,1.5 2.58472,-3.42169 5.46437,-6.7595 8.46875,-8.21875 M 267.3125,253 c 0.27601,0.4872 0.49868,0.99005 0.8125,1.46875 1.06146,-2.01309 2.15665,-3.8129 3.3125,-4.96875 2.34298,-2.34297 6.29499,-4.16999 8.5625,-6.4375 0.11132,-0.11132 0.11132,-2.73243 0,-2.84375 -2.07251,-2.07251 -4.33676,-2.01767 -6.625,-0.90625"
       inkscape:connector-curvature="0" />
    <path
       style="fill:#ffffff;fill-opacity:0;stroke:#3c4b45;stroke-width:2;stroke-linecap:round;stroke-linejoin:round;stroke-miterlimit:4;stroke-dasharray:none;stroke-opacity:1"
       d="m 275,263.79076 c 1.20476,-0.89064 6.64974,-6.92169 12.85714,-0.71429"
       id="path4597"
       inkscape:connector-curvature="0" />
    <path
       style="fill:#ffffff;fill-opacity:0;stroke:#000000;stroke-width:2;stroke-linecap:butt;stroke-linejoin:miter;stroke-miterlimit:4;stroke-dasharray:none;stroke-opacity:1"
       d="m 225.05841,80.29574 c -2.7573,0.995756 -5.05076,4.769138 -5.05076,8.333759 0,2.319333 1.53436,4.312274 3.03046,5.808377 0.52809,0.528094 1.63519,0.438789 2.27284,0.757614 1.33896,0.66948 3.83553,0.528804 4.79823,1.010153 0.81591,0.407958 1.65015,0.291744 2.52538,0 1.51092,-0.503641 2.87585,-0.55404 4.29315,-1.262691 3.87449,-1.937249 5.08574,-10.967917 0.75761,-13.131984 -1.82923,-0.914616 -3.82282,-2.525381 -6.06091,-2.525381 -0.24197,0 -2.37195,-0.0991 -2.52539,-0.252538 -1.04705,-1.047051 -3.24016,0.942512 -4.04061,1.262691 z"
       id="path4331"
       inkscape:connector-curvature="0"
       sodipodi:nodetypes="csssssssssc" />
    <path
       style="fill:#ffffff;fill-opacity:0;stroke:#000000;stroke-width:2;stroke-linecap:butt;stroke-linejoin:miter;stroke-miterlimit:4;stroke-dasharray:none;stroke-opacity:1"
       d="m 228.08887,83.326197 c -2.35591,0.442922 -3.53553,1.739028 -3.53553,4.293149 0,3.860502 3.38464,5.555839 7.07107,5.555839 0.52026,0 1.80735,0.232746 2.27284,0 1.01978,-0.509892 1.4226,-1.170058 2.02031,-1.767767 0.28087,-0.280873 0.25253,-1.316129 0.25253,-1.767767 0,-0.595643 0.4109,-1.451053 0,-2.272844 -1.16636,-2.332718 -5.38401,-5.658935 -8.08122,-4.04061 z"
       id="path4372"
       inkscape:connector-curvature="0" />
    <path
       style="fill:#ffffff;fill-opacity:0;stroke:#3c4b45;stroke-width:2;stroke-linecap:round;stroke-linejoin:round;stroke-miterlimit:4;stroke-dasharray:none;stroke-opacity:1"
       d="m 199.8046,92.41757 c -8.46321,1.760212 2.15081,5.677872 4.04061,3.788072 1.94198,-1.941976 -1.31833,-4.332526 -4.04061,-3.788072 z"
       id="path4374"
       inkscape:connector-curvature="0" />
    <path
       style="fill:#ffffff;fill-opacity:0;stroke:#3c4b45;stroke-width:2;stroke-linecap:round;stroke-linejoin:round;stroke-miterlimit:4;stroke-dasharray:none;stroke-opacity:1"
       d="m 370.71429,485.21933 c 3.40541,2.46467 17.26559,4.16298 25.71428,-4.28572"
       id="path4404"
       inkscape:connector-curvature="0" />
    <path
       style="fill:#ffffff;fill-opacity:0;stroke:#3c4b45;stroke-width:2;stroke-linecap:round;stroke-linejoin:round;stroke-miterlimit:4;stroke-dasharray:none;stroke-opacity:1"
       d="m 367.85714,498.07647 c 2.6276,3.65866 12.50521,1.42857 23.57143,1.42857"
       id="path4406"
       inkscape:connector-curvature="0" />
    <path
       style="fill:#ffffff;fill-opacity:0;stroke:#3c4b45;stroke-width:2;stroke-linecap:round;stroke-linejoin:round;stroke-miterlimit:4;stroke-dasharray:none;stroke-opacity:1"
       d="m 367.14286,514.50504 c 6.41506,6.80947 12.11269,2.14286 20,2.14286"
       id="path4408"
       inkscape:connector-curvature="0" />
    <path
       style="fill:#ffffff;fill-opacity:0;stroke:#3c4b45;stroke-width:2;stroke-linecap:round;stroke-linejoin:round;stroke-miterlimit:4;stroke-dasharray:none;stroke-opacity:1"
       d="m 396.42857,470.21933 c 6.50949,-15.78547 2.44938,-34.28572 -14.28571,-34.28572"
       id="path4410"
       inkscape:connector-curvature="0" />
    <path
       style="fill:#ffffff;fill-opacity:0;stroke:#3c4b45;stroke-width:2;stroke-linecap:round;stroke-linejoin:round;stroke-miterlimit:4;stroke-dasharray:none;stroke-opacity:1"
       d="m 397.14286,410.21933 c 1.57289,0.79893 6.70703,11.54966 10,21.42857 0.71389,2.14167 -0.71429,12.39627 -0.71429,15.71429"
       id="path4412"
       inkscape:connector-curvature="0" />
    <path
       style="fill:#ffffff;fill-opacity:0;stroke:#3c4b45;stroke-width:2;stroke-linecap:round;stroke-linejoin:round;stroke-miterlimit:4;stroke-dasharray:none;stroke-opacity:1"
       d="m 303.57143,546.6479 c 4.62577,1.8478 10.71524,5.46641 18.57143,5 0.90303,-0.90303 3.63884,-2.14286 5.71428,-2.14286"
       id="path4414"
       inkscape:connector-curvature="0"
       sodipodi:nodetypes="ccc" />
    <path
       style="fill:#ffffff;fill-opacity:0;stroke:#3c4b45;stroke-width:2;stroke-linecap:round;stroke-linejoin:round;stroke-miterlimit:4;stroke-dasharray:none;stroke-opacity:1"
       d="m 303.74475,506.22948 c 1.98481,1.91798 3.32986,3.68029 6.50779,4.07651 3.07146,1.53573 8.75054,2.76016 11.84699,1.21193 3.95892,-1.97946 9.30425,-2.35762 12.90047,-4.15573"
       id="path4416"
       inkscape:connector-curvature="0"
       sodipodi:nodetypes="ccsc" />
    <path
       style="fill:#ffffff;fill-opacity:0;stroke:#3c4b45;stroke-width:2;stroke-linecap:round;stroke-linejoin:round;stroke-miterlimit:4;stroke-dasharray:none;stroke-opacity:1"
       d="m 305,499.50504 c -10.92924,-7.54372 9.94043,-26.48814 17.14286,-19.28571 0.47619,0.47619 2.38095,-0.47619 2.85714,0 2.80389,2.80389 6.23313,8.37599 8.57143,10.71428 2.39502,2.39502 -2.01092,8.43949 -2.85714,9.28572 -1.27451,1.2745 -0.62293,-7.0515 -5,-11.42857 -2.74787,-2.74786 -15.46448,3.10695 -12.14286,6.42857"
       id="path4418"
       inkscape:connector-curvature="0" />
    <path
       style="fill:#ffffff;fill-opacity:0;stroke:#3c4b45;stroke-width:2;stroke-linecap:round;stroke-linejoin:round;stroke-miterlimit:4;stroke-dasharray:none;stroke-opacity:1"
       d="m 307.85714,472.36219 c 0.11164,-1.6538 2.61075,-3.44824 8.57143,-6.42858 11.32844,-5.66421 16.2755,8.41836 21.42857,13.57143"
       id="path4420"
       inkscape:connector-curvature="0" />
    <path
       style="fill:#ffffff;fill-opacity:0;stroke:#3c4b45;stroke-width:2;stroke-linecap:round;stroke-linejoin:round;stroke-miterlimit:4;stroke-dasharray:none;stroke-opacity:1"
       d="m 308.57143,448.79076 c 4.877,0.67372 14.65128,4.81722 20,2.14285 14.86511,-7.43255 26.98148,-10.39152 35.71428,-27.85714 1.15965,-2.31929 4.33448,-5.09752 5.71429,-7.85714 1.37393,-2.74787 5.38713,-4.73282 6.42857,-7.85714 0.97575,-2.92725 5.71429,-17.11782 5.71429,-19.28572"
       id="path4422"
       inkscape:connector-curvature="0" />
    <path
       style="fill:#ffffff;fill-opacity:0;stroke:#3c4b45;stroke-width:2;stroke-linecap:round;stroke-linejoin:round;stroke-miterlimit:4;stroke-dasharray:none;stroke-opacity:1"
       d="m 265,468.07647 c -0.82393,-0.8643 -5.56825,-0.86032 -9.28571,2.85714 -1.49945,1.49946 -2.59124,7.59124 -3.57143,8.57143 -0.98339,0.98339 -0.71429,3.01268 -0.71429,5 0,10.75263 7.58355,6.15498 12.14286,10.71429 0.43135,0.43135 3.60834,0 4.28571,0 3.5851,0 9.28572,-3.36617 9.28572,-5.71429 0,-0.0596 0.7461,-7.17468 -0.71429,-5.71428 -0.87227,0.87227 -7.09361,6.45319 -8.57143,5.71428 -1.52807,-0.76403 -2.82785,-1.42857 -4.28571,-1.42857"
       id="path4463"
       inkscape:connector-curvature="0" />
    <path
       style="fill:#ffffff;fill-opacity:0;stroke:#3c4b45;stroke-width:2;stroke-linecap:round;stroke-linejoin:round;stroke-miterlimit:4;stroke-dasharray:none;stroke-opacity:1"
       d="m 278.57143,467.36219 c 7.92881,9.44526 16.74771,40.71428 -13.57143,40.71428"
       id="path4465"
       inkscape:connector-curvature="0" />
    <path
       style="fill:#ffffff;fill-opacity:0;stroke:#3c4b45;stroke-width:2;stroke-linecap:round;stroke-linejoin:round;stroke-miterlimit:4;stroke-dasharray:none;stroke-opacity:1"
       d="m 260,453.79076 c 9.07995,-7.4257 20.03836,-11.35185 29.28571,7.14285"
       id="path4467"
       inkscape:connector-curvature="0" />
    <path
       style="fill:#ffffff;fill-opacity:0;stroke:#3c4b45;stroke-width:2;stroke-linecap:round;stroke-linejoin:round;stroke-miterlimit:4;stroke-dasharray:none;stroke-opacity:1"
       d="m 247.85714,513.79076 c 3.19187,5.11087 20.92195,11.22091 34.28572,-2.14286"
       id="path4469"
       inkscape:connector-curvature="0" />
    <path
       style="fill:#ffffff;fill-opacity:0;stroke:#3c4b45;stroke-width:2;stroke-linecap:round;stroke-linejoin:round;stroke-miterlimit:4;stroke-dasharray:none;stroke-opacity:1"
       d="m 252.14286,530.21933 c 6.84789,2.594 14.95164,-0.71429 21.42857,-0.71429"
       id="path4471"
       inkscape:connector-curvature="0" />
    <path
       style="fill:#ffffff;fill-opacity:0;stroke:#3c4b45;stroke-width:2;stroke-linecap:round;stroke-linejoin:round;stroke-miterlimit:4;stroke-dasharray:none;stroke-opacity:1"
       d="m 303.57143,524.50504 c 0.34105,2.07388 5.48292,4.88432 12.85714,8.57143 3.31533,1.65766 9.52138,-0.71428 12.85714,-0.71428"
       id="path4473"
       inkscape:connector-curvature="0" />
    <path
       style="fill:#ffffff;fill-opacity:0;stroke:#3c4b45;stroke-width:2;stroke-linecap:round;stroke-linejoin:round;stroke-miterlimit:4;stroke-dasharray:none;stroke-opacity:1"
       d="m 263.57143,356.6479 c -0.73859,-0.009 -10.95783,-0.95783 -15.71429,-5.71429 -0.27581,-0.27581 -3.89485,-5.39086 -4.28571,-5 -0.35715,0.35714 0.35714,1.78572 0,2.14286 -6.42599,6.42599 23.29356,29.56357 33.57142,19.28571 0.59524,-0.59523 2.26191,-0.11904 2.85715,-0.71428 3.92847,-3.92847 11.58276,-8.16552 14.28571,-13.57143 3.54066,-7.08131 7.90407,-13.66528 11.42857,-20.71429 1.91946,-3.83891 1.74704,-14.92263 2.85715,-17.14285 1.83112,-3.66226 0.59493,-15.11935 -1.42858,-17.14286 -3.55737,-3.55737 -8.57142,21.17871 -8.57142,22.85714"
       id="path4527"
       inkscape:connector-curvature="0" />
    <path
       style="fill:#ffffff;fill-opacity:0;stroke:#3c4b45;stroke-width:2;stroke-linecap:round;stroke-linejoin:round;stroke-miterlimit:4;stroke-dasharray:none;stroke-opacity:1"
       d="m 304.28571,289.50504 c 1.90452,-2.92495 7.91766,-4.2252 13.57143,1.42857 0.83802,0.83802 1.2449,3.38776 2.14286,4.28572 0.41801,0.41801 -0.21309,23.28331 -0.71429,24.28571 -1.33301,2.66603 -0.79435,6.58871 -2.14285,9.28572 -2.94844,5.89688 -12.09347,29.23632 -14.28572,31.42857 -5.16467,5.16467 -10.64576,11.36005 -16.42857,17.14286 -1.49367,1.49367 -4.62502,1.24108 -6.42857,2.14285 -11.62474,5.81237 -22.33371,0.52344 -30.71429,-7.85714"
       id="path4529"
       inkscape:connector-curvature="0" />
    <path
       style="fill:#ffffff;fill-opacity:0;stroke:#3c4b45;stroke-width:2;stroke-linecap:round;stroke-linejoin:round;stroke-miterlimit:4;stroke-dasharray:none;stroke-opacity:1"
       d="m 325,298.79076 c -0.56812,1.77236 5.52698,-3.30794 7.85714,-2.14286 2.03021,1.01511 8.10019,9.52134 11.42857,7.85714 5.39376,-2.69688 5.54961,-12.69246 10,-17.14285 9.32151,-9.32151 21.69273,-14.02156 31.42858,-4.28572"
       id="path4557"
       inkscape:connector-curvature="0" />
    <path
       style="fill:#ffffff;fill-opacity:0;stroke:#3c4b45;stroke-width:2;stroke-linecap:round;stroke-linejoin:round;stroke-miterlimit:4;stroke-dasharray:none;stroke-opacity:1"
       d="m 335.71429,417.36219 c 1.10494,-0.43398 8.01495,-6.7442 11.42857,-13.57143 0.42553,-0.85106 0.78353,-2.92639 1.42857,-3.57143 12.13512,-12.13512 29.4269,-30 47.14286,-30 0.60508,0 2.29967,1.42857 3.57142,1.42857"
       id="path4559"
       inkscape:connector-curvature="0" />
    <path
       style="fill:#ffffff;fill-opacity:0;stroke:#3c4b45;stroke-width:2;stroke-linecap:round;stroke-linejoin:round;stroke-miterlimit:4;stroke-dasharray:none;stroke-opacity:1"
       d="m 300.71429,257.36219 c 5.06798,4.4539 14.40479,14.52386 20,25.71428 0.66212,1.32426 4.54688,9.02455 7.85714,5.71429 1.11587,-1.11587 -5.39206,-21.82063 -7.14286,-23.57143 -3.76079,-3.76079 -8.14177,-6.28355 -10,-10"
       id="path4561"
       inkscape:connector-curvature="0" />
    <path
       style="fill:#ffffff;fill-opacity:0;stroke:#3c4b45;stroke-width:2;stroke-linecap:round;stroke-linejoin:round;stroke-miterlimit:4;stroke-dasharray:none;stroke-opacity:1"
       d="m 337.14286,280.21933 c -2.46005,-17.65572 -11.10824,-31.10824 -22.85715,-42.85714 -0.86633,-0.86634 -5.34021,-6.80265 -3.57142,-8.57143 8.06586,-8.06586 10.889,6.60329 15,10.71428 3.98936,3.98936 12.14285,18.99022 12.14285,25"
       id="path4589"
       inkscape:connector-curvature="0" />
    <path
       style="fill:#ffffff;fill-opacity:0;stroke:#3c4b45;stroke-width:2;stroke-linecap:round;stroke-linejoin:round;stroke-miterlimit:4;stroke-dasharray:none;stroke-opacity:1"
       d="m 331.42857,227.36219 c 9.79698,10.43618 9.57576,35.29004 17.14286,42.85714 1.42289,1.42289 1.06719,9.10926 6.42857,6.42857 1.08546,-0.54273 4.54643,-3.04999 3.57143,-5 -2.21947,-4.43893 -4.93544,-8.44232 -7.14286,-12.85714 -3.45751,-6.91503 -4.50023,-15.92881 -9.28571,-20.71429"
       id="path4591"
       inkscape:connector-curvature="0" />
    <path
       style="fill:#ffffff;fill-opacity:0;stroke:#3c4b45;stroke-width:2;stroke-linecap:round;stroke-linejoin:round;stroke-miterlimit:4;stroke-dasharray:none;stroke-opacity:1"
       d="m 358.57143,255.21933 c -0.75871,-1.92207 -2.96924,-3.19343 -3.57143,-5 -4.52664,-13.57992 -12.26809,-23.8219 -17.85714,-35 -0.87145,-1.7429 0.79205,-3.64919 1.42857,-4.28572 2.90849,-2.90849 10.2533,7.39617 12.14286,9.28572 1.86143,1.86143 1.54726,4.40441 2.85714,5.71428 8.10358,8.10358 3.8735,16.31844 8.57143,25.71429 0.97291,1.94583 -0.26435,5.1856 0.71428,7.14286 2.29924,4.59847 7.63371,7.41026 8.57143,9.28571"
       id="path4593"
       inkscape:connector-curvature="0" />
    <path
       style="fill:#ffffff;fill-opacity:0;stroke:#3c4b45;stroke-width:2;stroke-linecap:round;stroke-linejoin:round;stroke-miterlimit:4;stroke-dasharray:none;stroke-opacity:1"
       d="m 356.42857,215.21933 c 3.32446,6.39144 6.67878,9.78612 9.28572,15 2.21025,4.4205 -0.72041,12.13674 2.85714,15.71428 1.42407,1.42408 5,5.49508 5,7.85715"
       id="path4595"
       inkscape:connector-curvature="0" />
    <path
       style="fill:#ffffff;fill-opacity:0;stroke:#3c4b45;stroke-width:2;stroke-linecap:round;stroke-linejoin:round;stroke-miterlimit:4;stroke-dasharray:none;stroke-opacity:1"
       d="m 276.42857,253.79075 c 1.21344,-3.10326 8.86624,-7.26752 12.14286,-0.71428"
       id="path4599"
       inkscape:connector-curvature="0" />
    <path
       style="fill:#ffffff;fill-opacity:0;stroke:#3c4b45;stroke-width:2;stroke-linecap:round;stroke-linejoin:round;stroke-miterlimit:4;stroke-dasharray:none;stroke-opacity:1"
       d="m 291.42857,226.6479 c 7.77071,-6.95075 5.59689,3.45403 7.85714,5.71428"
       id="path4603"
       inkscape:connector-curvature="0" />
    <path
       style="fill:#ffffff;fill-opacity:0;stroke:#3c4b45;stroke-width:2;stroke-linecap:round;stroke-linejoin:round;stroke-miterlimit:4;stroke-dasharray:none;stroke-opacity:1"
       d="m 297.85714,215.21933 c -0.59704,-4.42131 8.57143,-4.29358 8.57143,4.28572"
       id="path4605"
       inkscape:connector-curvature="0" />
    <path
       style="fill:#ffffff;fill-opacity:0;stroke:#3c4b45;stroke-width:2;stroke-linecap:round;stroke-linejoin:round;stroke-miterlimit:4;stroke-dasharray:none;stroke-opacity:1"
       d="m 309.28572,202.36218 c 8.31838,-4.41703 7.14285,0.94313 7.14285,7.14286"
       id="path4607"
       inkscape:connector-curvature="0" />
    <path
       style="fill:#ffffff;fill-opacity:0;stroke:#3c4b45;stroke-width:2;stroke-linecap:round;stroke-linejoin:round;stroke-miterlimit:4;stroke-dasharray:none;stroke-opacity:1"
       d="m 324.28571,193.79076 c 4.65171,0.0935 6.42858,0.67151 6.42858,8.57143"
       id="path4609"
       inkscape:connector-curvature="0" />
    <path
       style="fill:#ffffff;fill-opacity:0;stroke:#3c4b45;stroke-width:2;stroke-linecap:round;stroke-linejoin:round;stroke-miterlimit:4;stroke-dasharray:none;stroke-opacity:1"
       d="m 283.57143,238.07647 c 5.67551,-2.24186 8.57143,-4.9884 8.57143,6.42857"
       id="path4635"
       inkscape:connector-curvature="0" />
    <path
       style="fill:#ffffff;fill-opacity:0;stroke:#3c4b45;stroke-width:2;stroke-linecap:round;stroke-linejoin:round;stroke-miterlimit:4;stroke-dasharray:none;stroke-opacity:1"
       d="m 241.42857,340.21933 c 6.26005,3.91896 20.34385,8.94187 31.42857,-2.14286 1.32608,-1.32607 4.04839,-2.38248 5,-4.28571 1.51627,-3.03253 2.79127,-6.29683 4.28572,-9.28572"
       id="path4639"
       inkscape:connector-curvature="0" />
    <path
       style="fill:#ffffff;fill-opacity:0;stroke:#3c4b45;stroke-width:2;stroke-linecap:round;stroke-linejoin:round;stroke-miterlimit:4;stroke-dasharray:none;stroke-opacity:1"
       d="m 233.57143,323.07647 c 4.61002,0.77429 13.89995,7.69288 19.28571,5 10.28047,-5.14023 17.85715,-14.30474 17.85715,-27.85714"
       id="path4641"
       inkscape:connector-curvature="0" />
    <path
       style="fill:#ffffff;fill-opacity:0;stroke:#3c4b45;stroke-width:2;stroke-linecap:round;stroke-linejoin:round;stroke-miterlimit:4;stroke-dasharray:none;stroke-opacity:1"
       d="m 282.14286,303.07647 c -7.16546,18.35989 -6.35973,29.28572 -28.57143,29.28572"
       id="path4643"
       inkscape:connector-curvature="0" />
    <path
       style="fill:#ffffff;fill-opacity:0;stroke:#3c4b45;stroke-width:2;stroke-linecap:round;stroke-linejoin:round;stroke-miterlimit:4;stroke-dasharray:none;stroke-opacity:1"
       d="m 252.14286,278.79076 c -13.91039,15.14042 -24.26028,7.73204 -28.69398,8.19634 -2.74586,0.28754 -1.04164,7.06804 0.12255,8.23223 3.24774,3.24774 10.08928,6.74107 16.42857,3.57143 1.45725,-0.72863 4.00048,0.28523 10,-3.57143"
       id="path4671"
       inkscape:connector-curvature="0"
       sodipodi:nodetypes="csssc" />
    <path
       style="fill:#ffffff;fill-opacity:0;stroke:#3c4b45;stroke-width:2;stroke-linecap:round;stroke-linejoin:round;stroke-miterlimit:4;stroke-dasharray:none;stroke-opacity:1"
       d="m 221.01781,272.47727 c 2.68392,1.36169 12.68708,1.81585 18.94036,0.25253 2.46334,-0.61583 4.63944,-2.84823 6.56599,-4.29314 2.86037,-2.14528 5.97455,-2.35265 7.82868,-6.06092"
       id="path4688"
       inkscape:connector-curvature="0" />
    <path
       style="fill:#ffffff;fill-opacity:0;stroke:#3c4b45;stroke-width:2;stroke-linecap:round;stroke-linejoin:round;stroke-miterlimit:4;stroke-dasharray:none;stroke-opacity:1"
       d="m 264.28571,426.6479 c 3.17264,-0.7714 14.31188,2.15594 17.14286,3.57143 5.49797,2.74898 10.72032,4.28873 16.42857,7.14286 1.17702,0.5885 25.00782,2.13503 25.71429,1.42857 1.74571,-1.74571 13.22023,-5.71429 15.71428,-5.71429"
       id="path4727"
       inkscape:connector-curvature="0" />
    <path
       style="fill:#ffffff;fill-opacity:0;stroke:#3c4b45;stroke-width:2;stroke-linecap:round;stroke-linejoin:round;stroke-miterlimit:4;stroke-dasharray:none;stroke-opacity:1"
       d="m 252.85714,390.93362 c 19.32026,2.87895 47.21372,3.50056 70,-19.28572 1.99073,-1.99073 2.59591,-5.60406 4.28571,-7.85714 6.34118,-8.4549 13.38579,-25.26432 22.85715,-30"
       id="path4729"
       inkscape:connector-curvature="0" />
    <path
       style="fill:#ffffff;fill-opacity:0;stroke:#3c4b45;stroke-width:2;stroke-linecap:round;stroke-linejoin:round;stroke-miterlimit:4;stroke-dasharray:none;stroke-opacity:1"
       d="m 219.28571,207.36219 c 4.82732,-4.62611 19.08452,-5.91549 29.28572,4.28571"
       id="path4744"
       inkscape:connector-curvature="0" />
    <path
       style="fill:#ffffff;fill-opacity:0;stroke:#3c4b45;stroke-width:2;stroke-linecap:round;stroke-linejoin:round;stroke-miterlimit:4;stroke-dasharray:none;stroke-opacity:1"
       d="m 223.57143,194.50504 c 10.79352,-5.78109 19.73058,-0.26941 26.42857,6.42857"
       id="path4746"
       inkscape:connector-curvature="0" />
    <path
       style="fill:#ffffff;fill-opacity:0;stroke:#3c4b45;stroke-width:2;stroke-linecap:round;stroke-linejoin:round;stroke-miterlimit:4;stroke-dasharray:none;stroke-opacity:1"
       d="m 282.85714,165.93361 c 2.3862,-1.52812 -7.34836,-17.85714 -16.42857,-17.85714"
       id="path4748"
       inkscape:connector-curvature="0" />
    <path
       style="fill:#ffffff;fill-opacity:0;stroke:#3c4b45;stroke-width:2;stroke-linecap:round;stroke-linejoin:round;stroke-miterlimit:4;stroke-dasharray:none;stroke-opacity:1"
       d="m 252.85714,109.50504 c 2.30603,-0.5851 4.43502,-1.57787 5.71429,-2.85714 0.5696,-0.56961 1.57325,-0.50183 2.14286,-1.07143 1.77558,-1.77559 2.52346,-3.97551 3.92857,-6.785717 0.23809,-0.476191 -0.2381,-1.309524 0,-1.785715 3.12608,-6.252163 -4.44193,-18.928571 -7.85715,-18.928571"
       id="path4841"
       inkscape:connector-curvature="0" />
    <path
       style="fill:#ffffff;fill-opacity:0;stroke:#3c4b45;stroke-width:2;stroke-linecap:round;stroke-linejoin:round;stroke-miterlimit:4;stroke-dasharray:none;stroke-opacity:1"
       d="m 271.78571,85.576467 c 1.99681,3.993611 3.07757,14.779573 -1.07142,18.928573 -0.3336,0.3336 -0.38069,1.45211 -0.71429,1.78571 -2.71733,2.71733 -6.81496,4.66778 -10.35714,6.78572 -1.45199,0.96053 -2.98959,0.71428 -4.64286,0.71428"
       id="path4843"
       inkscape:connector-curvature="0" />
    <path
       style="fill:#ffffff;fill-opacity:0;stroke:#3c4b45;stroke-width:2;stroke-linecap:round;stroke-linejoin:round;stroke-miterlimit:4;stroke-dasharray:none;stroke-opacity:1"
       d="m 255,121.6479 c 7.29031,-1.99048 17.97956,-0.46946 21.42857,6.42857"
       id="path4845"
       inkscape:connector-curvature="0" />
    <path
       style="fill:#ffffff;fill-opacity:0;stroke:#3c4b45;stroke-width:2;stroke-linecap:round;stroke-linejoin:round;stroke-miterlimit:4;stroke-dasharray:none;stroke-opacity:1"
       d="m 256.42857,126.6479 c 4.61306,-1.91872 11.54715,0.83286 13.92857,3.21428"
       id="path4847"
       inkscape:connector-curvature="0" />
    <path
       style="fill:#ffffff;fill-opacity:0;stroke:#3c4b45;stroke-width:2;stroke-linecap:round;stroke-linejoin:round;stroke-miterlimit:4;stroke-dasharray:none;stroke-opacity:1"
       d="m 241.42857,164.50504 c 4.68847,-4.33524 11.42267,-3.63386 16.42857,0.35714 1.71289,1.71288 4.58672,2.801 5.35715,7.5"
       id="path4849"
       inkscape:connector-curvature="0"
       sodipodi:nodetypes="ccc" />
    <path
       style="fill:#ffffff;fill-opacity:0;stroke:#3c4b45;stroke-width:2;stroke-linecap:round;stroke-linejoin:round;stroke-miterlimit:4;stroke-dasharray:none;stroke-opacity:1"
       d="m 241.78571,168.07647 c 4.53211,-1.37096 15.35715,1.29912 15.35715,6.07143"
       id="path4864"
       inkscape:connector-curvature="0" />
    <path
       style="fill:#ffffff;fill-opacity:0;stroke:#3c4b45;stroke-width:2;stroke-linecap:round;stroke-linejoin:round;stroke-miterlimit:4;stroke-dasharray:none;stroke-opacity:1"
       d="m 218.57143,238.07647 c 4.53385,-1.55975 14.87611,-6.45954 19.28571,-5.35714 1.89352,0.47338 3.65346,2.0053 5.35715,2.85714"
       id="path4879"
       inkscape:connector-curvature="0" />
    <path
       style="fill:#ffffff;fill-opacity:0;stroke:#3c4b45;stroke-width:2;stroke-linecap:round;stroke-linejoin:round;stroke-miterlimit:4;stroke-dasharray:none;stroke-opacity:1"
       d="m 192.14286,463.07647 c -0.26984,-0.0201 -5.71429,0.78026 -5.71429,5"
       id="path4881"
       inkscape:connector-curvature="0" />
    <path
       style="fill:#ffffff;fill-opacity:0;stroke:#3c4b45;stroke-width:2;stroke-linecap:round;stroke-linejoin:round;stroke-miterlimit:4;stroke-dasharray:none;stroke-opacity:1"
       d="m 210.71429,468.79076 c -1.51891,-2.40521 -7.50241,5.70948 -5,10.71428"
       id="path4883"
       inkscape:connector-curvature="0" />
    <path
       style="fill:#ffffff;fill-opacity:0;stroke:#3c4b45;stroke-width:2;stroke-linecap:round;stroke-linejoin:round;stroke-miterlimit:4;stroke-dasharray:none;stroke-opacity:1"
       d="m 230,470.21933 c -2.12538,1.59929 -4.91543,1.28406 -6.42858,4.28571 -1.88851,3.77704 9.82754,10.17247 12.85715,7.14286 0.95789,-0.9579 3.84252,-0.98537 5,-2.14286 1.67047,-1.67047 4.30665,-4.30665 5.71428,-5.71428"
       id="path4924"
       inkscape:connector-curvature="0"
       sodipodi:nodetypes="ccssc" />
    <path
       style="fill:#ffffff;fill-opacity:0;stroke:#000000;stroke-width:2;stroke-linecap:butt;stroke-linejoin:miter;stroke-miterlimit:4;stroke-dasharray:none;stroke-opacity:1"
       d="m 302.75,558.61218 c -0.25323,0.90514 -0.45226,-0.0955 -1.5,2 -1.36763,2.73526 -1.50105,6.12448 1.25,7.5 0.46667,0.23334 1.28333,-0.23333 1.75,0 1.577,0.7885 3.91441,0.0856 5,-1 1.51096,-1.51096 -1.39584,-7.14583 -2.5,-8.25 -1.00246,-1.00245 -2.8736,-0.25 -4,-0.25 z"
       id="path5812"
       inkscape:connector-curvature="0" />
    <path
       style="fill:#ffffff;fill-opacity:0;stroke:#000000;stroke-width:2;stroke-linecap:butt;stroke-linejoin:miter;stroke-miterlimit:4;stroke-dasharray:none;stroke-opacity:1"
       d="m 292,555.11218 c -0.28763,0.0298 -2.87454,1.24907 -4,3.5 -2.83669,5.67339 5.5537,6.9463 8.25,4.25 2.32819,-2.32819 0.19311,-10.41587 -4.25,-7.75 z"
       id="path5814"
       inkscape:connector-curvature="0" />
    <path
       style="fill:#ffffff;fill-opacity:0;stroke:#000000;stroke-width:2;stroke-linecap:butt;stroke-linejoin:miter;stroke-miterlimit:4;stroke-dasharray:none;stroke-opacity:1"
       d="m 319.04565,560.11526 c -0.46628,0.17821 -0.66429,0.60823 -2.11376,2.31181 -0.38641,0.45416 -0.0916,1.4879 -0.47799,1.94205 -0.53724,0.63143 -0.78029,1.61891 -0.59749,2.42755 0.3046,1.3475 0.14325,1.94439 0.7993,3.0288 1.11244,1.83883 6.48836,0.2069 7.27513,-0.26908 1.19649,-0.72384 0.007,-10.12645 -4.88519,-9.44113 z"
       id="path5840"
       inkscape:connector-curvature="0" />
    <path
       style="fill:#ffffff;fill-opacity:0;stroke:#000000;stroke-width:2;stroke-linecap:butt;stroke-linejoin:miter;stroke-miterlimit:4;stroke-dasharray:none;stroke-opacity:1"
       d="m 339.5,557.11218 c 2.76554,2.96559 -2.47539,-2.22539 1.25,1.5 2.18753,2.18754 3.3359,6.5 -1,6.5 -1.02566,0 -1.51117,-0.0112 -2,-0.5 -0.29554,-0.29554 -1.11372,-0.11372 -1.5,-0.5 -0.375,-0.375 -0.625,-0.875 -1,-1.25 -0.34258,-0.34258 1.58321,-5.83321 1.75,-6 0.57309,-0.57309 1.96002,0.034 2.5,0.25 z"
       id="path5907"
       inkscape:connector-curvature="0" />
    <path
       style="fill:#ffffff;fill-opacity:0;stroke:#000000;stroke-width:2;stroke-linecap:butt;stroke-linejoin:miter;stroke-miterlimit:4;stroke-dasharray:none;stroke-opacity:1"
       d="m 254.5,542.11218 c -0.82164,-0.21952 -1.04524,1.34049 -2.25,3.75 -0.23067,0.46134 -0.0271,1.30425 -0.25,1.75 -2.83391,5.66783 6.08273,6.41728 8.75,3.75 1.173,-1.173 -1.50063,-13.0495 -6.25,-9.25 z"
       id="path5922"
       inkscape:connector-curvature="0" />
    <path
       style="fill:#ffffff;fill-opacity:0;stroke:#000000;stroke-width:2;stroke-linecap:butt;stroke-linejoin:miter;stroke-miterlimit:4;stroke-dasharray:none;stroke-opacity:1"
       d="m 235.37059,537.25224 c -1.81503,1.83528 -1.89377,3.27433 -2.33342,5.20146 -0.64204,2.81425 7.67023,4.73848 9.26523,2.11376 1.51392,-2.49128 -2.34889,-14.85684 -6.93181,-7.31522 z"
       id="path5963"
       inkscape:connector-curvature="0" />
    <path
       style="fill:#ffffff;fill-opacity:0;stroke:#000000;stroke-width:2;stroke-linecap:butt;stroke-linejoin:miter;stroke-miterlimit:4;stroke-dasharray:none;stroke-opacity:1"
       d="m 273.75,539.86218 c 0.15293,-0.26767 -1.62582,0.25164 -2.5,2 -2.62885,5.25771 1.81811,8.9319 5.5,5.25 0.87418,-0.87418 1.31348,-8.97539 -3,-7.25 z"
       id="path5978"
       inkscape:connector-curvature="0" />
    <path
       style="fill:#ffffff;fill-opacity:0;stroke:#000000;stroke-width:2;stroke-linecap:butt;stroke-linejoin:miter;stroke-miterlimit:4;stroke-dasharray:none;stroke-opacity:1"
       d="m 286,537.86218 c -1.00417,-0.44338 -1.23779,0.98779 -2.5,2.25 -1.05488,1.05488 2.70511,6.29489 5.5,3.5 2.15825,-2.15824 0.55258,-7.17103 -3,-5.75 z"
       id="path5993"
       inkscape:connector-curvature="0" />
    <path
       style="fill:#ffffff;fill-opacity:0;stroke:#000000;stroke-width:2;stroke-linecap:butt;stroke-linejoin:miter;stroke-miterlimit:4;stroke-dasharray:none;stroke-opacity:1"
       d="m 354,522.61218 c -2.76554,2.96559 2.47539,-2.22539 -1.25,1.5 -0.16389,0.1639 -0.12475,0.87475 -0.25,1 -2.58004,2.58004 2.74402,7.75599 5.75,4.75 3.46226,-3.46225 1.19108,-9.42643 -4.25,-7.25 z"
       id="path5995"
       inkscape:connector-curvature="0" />
    <path
       style="fill:#ffffff;fill-opacity:0;stroke:#000000;stroke-width:2;stroke-linecap:butt;stroke-linejoin:miter;stroke-miterlimit:4;stroke-dasharray:none;stroke-opacity:1"
       d="m 362.75,526.11218 c -0.33333,0.33334 -0.66667,0.66667 -1,1 0.33333,-0.33333 1.33333,-1.33333 1,-1 -1.1113,1.1113 -1.08587,0.92174 -1.5,1.75 -0.53307,1.06614 -2.38014,2.73972 -1.75,4 0.4421,0.8842 0.72853,2.47853 1.5,3.25 1.29367,1.29367 6.45544,1.04457 7.5,0 0.93616,-0.93616 -0.7834,-10.98664 -5.75,-9 z"
       id="path5997"
       inkscape:connector-curvature="0" />
    <path
       style="fill:#ffffff;fill-opacity:0;stroke:#000000;stroke-width:2;stroke-linecap:butt;stroke-linejoin:miter;stroke-miterlimit:4;stroke-dasharray:none;stroke-opacity:1"
       d="m 389.25,530.61218 c 0.29351,-0.75744 -1.12819,1.1282 -2.25,2.25 -0.89692,0.89693 -0.89692,5.60308 0,6.5 0.64328,0.64328 6.23024,-0.23024 6.5,-0.5 0.45833,-0.45833 0.0417,-1.79166 0.5,-2.25 2.45072,-2.45072 -1.5516,-7.27936 -4.75,-6 z"
       id="path6001"
       inkscape:connector-curvature="0" />
    <path
       style="fill:#ffffff;fill-opacity:0;stroke:#000000;stroke-width:2;stroke-linecap:butt;stroke-linejoin:miter;stroke-miterlimit:4;stroke-dasharray:none;stroke-opacity:1"
       d="m 376,529.86218 c -0.23782,-0.9541 -4.94472,3.61057 -3.75,6 0.38231,0.76462 4.12,2.13001 5,1.25 0.15097,-0.15097 1.26292,0 1.5,0 1.79336,0.18259 1.41126,-2.3746 1.25,-3.75 -1.4553,-1.4553 -0.31945,-4.23611 -4,-3.5 z"
       id="path6014"
       inkscape:connector-curvature="0"
       sodipodi:nodetypes="cssccc" />
    <path
       sodipodi:nodetypes="cccsc"
       inkscape:connector-curvature="0"
       id="path3081"
       d="m 297.9375,308.08924 c 0.22966,-1.02219 0.60493,-19.5802 -4.71875,-27.875 -3.59008,-2.55355 -5.20139,-7.23408 -9.96875,-10.625 -3.89928,0.65786 -3.58467,-4.29589 -6.15625,-6.125 -15.39147,-10.94766 -13.06101,-21.76375 -16.375,-41.40625"
       style="fill:#ffffff;fill-opacity:0;stroke:#000000;stroke-width:2;stroke-linecap:butt;stroke-linejoin:miter;stroke-miterlimit:4;stroke-dasharray:none;stroke-opacity:1" />
  </g>
</svg>
