<?xml version="1.0" encoding="UTF-8" standalone="no"?>
<!-- Created with Inkscape (http://www.inkscape.org/) -->

<svg
   xmlns:dc="http://purl.org/dc/elements/1.1/"
   xmlns:cc="http://creativecommons.org/ns#"
   xmlns:rdf="http://www.w3.org/1999/02/22-rdf-syntax-ns#"
   xmlns:svg="http://www.w3.org/2000/svg"
   xmlns="http://www.w3.org/2000/svg"
   xmlns:sodipodi="http://sodipodi.sourceforge.net/DTD/sodipodi-0.dtd"
   xmlns:inkscape="http://www.inkscape.org/namespaces/inkscape"
   width="314.61053"
   height="230.77061"
   id="svg2"
   version="1.1"
   inkscape:version="0.91 r13725"
   sodipodi:docname="pony.svg"
   inkscape:export-filename="/home/substack/media/vector/pony.png"
   inkscape:export-xdpi="144"
   inkscape:export-ydpi="144">
  <defs
     id="defs4" />
  <sodipodi:namedview
     id="base"
     pagecolor="#ffffff"
     bordercolor="#666666"
     borderopacity="1.0"
     inkscape:pageopacity="0.0"
     inkscape:pageshadow="2"
     inkscape:zoom="0.70710678"
     inkscape:cx="67.798028"
     inkscape:cy="19.84222"
     inkscape:document-units="px"
     inkscape:current-layer="layer1"
     showgrid="false"
     inkscape:window-width="1364"
     inkscape:window-height="766"
     inkscape:window-x="1"
     inkscape:window-y="1"
     inkscape:window-maximized="0"
     fit-margin-top="0"
     fit-margin-left="0"
     fit-margin-right="0"
     fit-margin-bottom="0" />
  <metadata
     id="metadata7">
    <rdf:RDF>
      <cc:Work
         rdf:about="">
        <dc:format>image/svg+xml</dc:format>
        <dc:type
           rdf:resource="http://purl.org/dc/dcmitype/StillImage" />
        <dc:title></dc:title>
      </cc:Work>
    </rdf:RDF>
  </metadata>
  <g
     inkscape:label="Layer 1"
     inkscape:groupmode="layer"
     id="layer1"
     transform="translate(-202.38811,-36.728521)">
    <path
       id="path4682"
       d="m 378.44718,245.61234 c -0.0437,-0.0498 -0.10058,-0.0891 -0.14226,-0.14072 -0.61068,-0.75485 -14.32414,4.21703 -16.27908,1.80048 -1.44483,-1.78598 -3.98682,-2.25185 -6.59376,-4.21572 -5.74581,11.04297 5.45522,16.665 15.22584,17.69672 0.92932,0.0982 2.70035,0.51821 3.8503,0.43795 0.12539,-0.0302 0.25797,-0.0205 0.38276,-0.0538 0.87238,-0.23281 1.7347,-0.54791 2.55201,-0.95605 0.81731,-0.40814 1.58487,-0.92224 2.3003,-1.54825 0.71543,-0.62602 1.3674,-1.36039 1.93414,-2.24682 0.2436,-0.38101 0.26777,-0.81957 0.13454,-1.27417 -0.13324,-0.4546 -0.42609,-0.92399 -0.79121,-1.43477 -0.73024,-1.02154 -1.78712,-2.14676 -2.57515,-3.2886 -0.39402,-0.57092 -0.72603,-1.15597 -0.91706,-1.73087 -0.19103,-0.57489 -0.22833,-1.14296 -0.0714,-1.70442 0.12977,-0.46429 0.5318,-0.89672 0.99004,-1.34095 z"
       style="fill:#6c5353;fill-opacity:1;stroke:#000000;stroke-width:1px;stroke-linecap:butt;stroke-linejoin:miter;stroke-opacity:1"
       inkscape:connector-curvature="0" />
    <path
       inkscape:connector-curvature="0"
       style="fill:#6c5353;fill-opacity:1;stroke:#000000;stroke-width:1px;stroke-linecap:butt;stroke-linejoin:miter;stroke-opacity:1"
       d="m 308.07549,242.05002 c -0.053,-0.0398 -0.11672,-0.0666 -0.1681,-0.10855 -0.7525,-0.61357 -13.15481,7.06506 -15.5638,5.10081 -1.7804,-1.45171 -4.3639,-1.38635 -7.31818,-2.77383 -3.35893,11.98662 8.75701,15.19198 18.53153,14.19796 0.9297,-0.0945 2.74923,-0.0466 3.85828,-0.361 0.11652,-0.0553 0.24827,-0.073 0.36359,-0.13116 0.80609,-0.40677 1.58546,-0.89203 2.30169,-1.45911 0.71623,-0.56708 1.36204,-1.22767 1.93388,-1.9871 0.57184,-0.75943 1.05934,-1.6119 1.43224,-2.59572 0.16028,-0.42287 0.094,-0.85707 -0.12963,-1.27468 -0.22364,-0.41761 -0.60653,-0.81697 -1.06864,-1.24201 -0.92422,-0.85006 -2.18941,-1.73461 -3.19486,-2.69057 -0.50273,-0.47798 -0.94767,-0.9825 -1.25254,-1.506 -0.30487,-0.5235 -0.45788,-1.07184 -0.41945,-1.65355 0.0318,-0.48103 0.3366,-0.98672 0.69399,-1.51549 z"
       id="path4680" />
    <path
       style="fill:#d35f5f;stroke:#000000;stroke-width:1px;stroke-linecap:butt;stroke-linejoin:miter;stroke-opacity:1"
       d="m 470.26955,119.86723 c 0.5,-0.66666 0.83333,-2.5 1.5,-2 0.66667,0.5 -2.33333,2 -1.5,2 1.69015,0 2.44549,-1.94549 3,-2.5 1.15577,-1.15577 12.39455,-2.60545 14,-1 1.36012,1.36012 0.5318,3.0636 1.5,5 0.3326,0.66521 1.66746,0.66746 2,1 1.77561,1.77561 8.33981,-2.66019 10.5,-0.5 0.33333,0.33334 0.16667,1.16667 0.5,1.5 0.24242,0.24242 0.92936,0.64129 0.5,1.5 -0.39129,0.78258 -1.09984,1.59984 -1.5,2 -0.12974,0.12974 -12.97728,1.52272 -13.5,1 -1.54151,-1.54151 -2.81499,-2.81499 -4,-4 -1.43421,-1.4342 -4.68018,1.5 -5.5,1.5 -1.6764,0 -6.6627,1.3373 -6,2"
       id="path4385"
       inkscape:connector-curvature="0" />
    <path
       style="fill:#ccb3b3;fill-opacity:1;stroke:#000000;stroke-width:1px;stroke-linecap:round;stroke-linejoin:miter;stroke-opacity:1"
       d="m 426.26955,59.617231 c -1.44305,-2.4706 -1.30839,-5.23357 -2,-8 -0.57843,-2.31371 -0.25,-5.06877 -0.25,-7.5 0,-0.5282 0.28998,-1.07996 0.5,-1.5 0.43426,-0.86853 0.30582,-2.11164 0.75,-3 1.52256,-3.04511 4.82582,-2.94945 7.75,-1 3.52615,2.35077 5.52965,13.16106 4.25,17 -0.5897,1.76911 -0.44742,5.22371 -1.5,5.75"
       id="path4303"
       inkscape:connector-curvature="0" />
    <path
       style="fill:#c3a9a9;fill-opacity:1;stroke:none"
       d="m 430.61026,38.163801 c 1.20518,-0.16836 2.05523,1.34812 3.53553,2.82842 0.24796,0.24796 0.41441,1.12151 0.70711,1.41422 0.493,0.493 0.30766,1.72187 0.70711,2.12132 0.1729,0.1729 0.17615,3.88722 0.35355,4.41942 0.8747,2.6241 0.58253,5.72923 -0.53033,7.95495 -0.65251,1.30501 -0.48649,2.6078 -1.41421,3.53553 -0.30102,0.30102 -2.12132,-4.03795 -2.12132,-4.94975 0,-0.70973 -1.22024,-4.03147 -1.59099,-4.77297 -0.14142,-0.28284 0.14142,-0.77782 0,-1.06066 -0.36106,-0.72212 -0.005,-1.77806 -0.35356,-2.47487 -1.12295,-2.2459 0.26709,-6.81551 0.70711,-9.01561 z"
       id="path4813"
       inkscape:connector-curvature="0" />
    <path
       style="fill:#ffffff;stroke:#000000;stroke-width:1px;stroke-linecap:butt;stroke-linejoin:miter;stroke-opacity:1"
       d="m 477.26955,125.86723 c -0.95112,-0.33621 4.08129,-4.45935 6.5,-3.25 1.46249,0.73125 2.5997,3.1503 1.25,4.5 -0.66721,0.66722 -0.72711,1.97711 -1.25,2.5"
       id="path4258"
       inkscape:connector-curvature="0" />
    <path
       style="fill:#ffffff;stroke:#000000;stroke-width:1px;stroke-linecap:butt;stroke-linejoin:miter;stroke-opacity:1"
       d="m 488.76955,130.36723 c -1.21369,-0.49075 4.55435,-4.94565 6.25,-3.25 1.6822,1.6822 1.51277,4.23723 0.25,5.5"
       id="path4260"
       inkscape:connector-curvature="0" />
    <path
       style="fill:#ffffff;stroke:#000000;stroke-width:1px;stroke-linecap:butt;stroke-linejoin:miter;stroke-opacity:1"
       d="m 483.20616,107.85835 c 0.0205,0.50741 -0.28336,6.44069 3.95821,5.56396 0.69182,-0.143 1.57067,-0.45837 1.85738,-0.89449 0.91349,-1.38953 0.94141,-3.54145 1.29253,-4.86229"
       id="path4157"
       inkscape:connector-curvature="0" />
    <path
       style="fill:#ffffff;stroke:#000000;stroke-width:1px;stroke-linecap:butt;stroke-linejoin:miter;stroke-opacity:1"
       d="m 504.2222,109.12614 c -1.19469,8.47535 8.89122,7.22503 7.25278,-0.47356"
       id="path4161"
       inkscape:connector-curvature="0"
       sodipodi:nodetypes="cc" />
    <path
       style="fill:#ffffff;stroke:#000000;stroke-width:1px;stroke-linecap:butt;stroke-linejoin:miter;stroke-opacity:1"
       d="m 493.76955,108.36723 c -0.0833,0.33333 0.0833,1.08333 -0.25,1 -0.33333,-0.0833 0.49296,-1.24295 0.25,-1 -2.26439,2.2644 0.41882,6.5 3.25,6.5 0.15256,0 0.90259,0.0974 1,0 1.25922,-1.25922 1.79706,-1.34413 2.75,-3.25 0.25393,-0.50786 0.5,-3.37006 0.5,-2.5"
       id="path4174"
       inkscape:connector-curvature="0" />
    <path
       style="fill:#c3a9a9;fill-opacity:1;stroke:#000000;stroke-width:1px;stroke-linecap:butt;stroke-linejoin:miter;stroke-opacity:1"
       d="m 283.19811,200.65296 c -0.54379,3.24316 -1.53062,23.97956 2.14286,35 1.41322,4.23964 0.15663,8.88468 2.14286,12.85714 1.62561,3.25122 5.31918,4.44531 7.85714,5.71429 2.32399,1.16199 6.96158,1.16206 9.28571,0 9.81869,-4.90934 8.47696,-10.52535 12.85715,-19.28572 0.71737,-1.43474 -0.0419,-3.48762 0.71428,-5 0.66372,-1.32743 -0.47339,-3.57983 0,-5 1.08416,-3.25247 1.50363,-9.1356 0,-12.14286 -1.34785,-2.6957 1.5761,-7.70962 -0.71428,-10 -1.03003,-1.03003 -34.28572,-0.96108 -34.28572,-2.14285 0,-1.21405 2.38096,-0.47619 3.57143,-0.71429"
       id="path3160"
       inkscape:connector-curvature="0" />
    <path
       id="path4678"
       d="m 290.07549,249.05002 c -0.053,-0.0398 -0.11672,-0.0666 -0.1681,-0.10855 -0.7525,-0.61357 -13.15481,7.06506 -15.5638,5.10081 -1.7804,-1.45171 -4.3639,-1.38635 -7.31818,-2.77383 -3.35893,11.98662 8.75701,15.19198 18.53153,14.19796 0.9297,-0.0945 2.74923,-0.0466 3.85828,-0.361 0.11652,-0.0553 0.24827,-0.073 0.36359,-0.13116 0.80609,-0.40677 1.58546,-0.89203 2.30169,-1.45911 0.71623,-0.56708 1.36204,-1.22767 1.93388,-1.9871 0.57184,-0.75943 1.05934,-1.6119 1.43224,-2.59572 0.16028,-0.42287 0.094,-0.85707 -0.12963,-1.27468 -0.22364,-0.41761 -0.60653,-0.81697 -1.06864,-1.24201 -0.92422,-0.85006 -2.18941,-1.73461 -3.19486,-2.69057 -0.50273,-0.47798 -0.94767,-0.9825 -1.25254,-1.506 -0.30487,-0.5235 -0.45788,-1.07184 -0.41945,-1.65355 0.0318,-0.48103 0.3366,-0.98672 0.69399,-1.51549 z"
       style="fill:#6c5353;fill-opacity:1;stroke:#000000;stroke-width:1px;stroke-linecap:butt;stroke-linejoin:miter;stroke-opacity:1"
       inkscape:connector-curvature="0" />
    <path
       style="fill:#c3a9a9;fill-opacity:1;stroke:#000000;stroke-width:1px;stroke-linecap:butt;stroke-linejoin:miter;stroke-opacity:1"
       d="m 360.73288,205.94271 c -1.08747,4.51971 -0.96111,9.22387 -1.48053,14.20879 -0.75355,7.23183 -1.01289,15.27585 0.54693,22.31973 3.71675,16.78422 16.98045,18.52707 25.27971,5.50672 3.11338,-4.88446 4.24649,-11.55695 6.82374,-17.2428 1.30185,-2.87209 0.71707,-7.06801 2.45725,-9.79809 0.50132,-0.78649 2.96864,-17.18464 2.56112,-17.68696 -0.78896,-0.9725 -3.69468,0.12411 -4.33667,0.26627 -2.86694,0.63487 -6.36876,-1.59721 -9.23571,-0.96234 -2.05816,0.45576 -5.34098,-0.72108 -7.17842,-0.0298 -5.00803,1.88403 -9.88382,1.84148 -15.43742,3.41851 z"
       id="path3175"
       inkscape:connector-curvature="0" />
    <path
       style="fill:#6c5353;fill-opacity:1;stroke:#000000;stroke-width:1px;stroke-linecap:butt;stroke-linejoin:miter;stroke-opacity:1"
       d="m 368.4258,251.00505 c -0.0487,-0.045 -0.10937,-0.0781 -0.15625,-0.125 -0.68656,-0.68656 -13.8021,5.6979 -16,3.5 -1.62439,-1.62439 -4.20125,-1.82075 -7,-3.5 -4.55441,11.58528 7.17506,16 17,16 0.93449,0 2.73983,0.23179 3.875,0.0312 0.12152,-0.0432 0.25438,-0.0475 0.375,-0.0937 0.8431,-0.32313 1.66757,-0.72704 2.4375,-1.21875 0.76993,-0.49171 1.47926,-1.08357 2.125,-1.78125 0.64574,-0.69768 1.21698,-1.49645 1.6875,-2.4375 0.20224,-0.40448 0.18024,-0.84316 0,-1.28125 -0.18024,-0.43809 -0.52076,-0.87414 -0.9375,-1.34375 -0.83347,-0.93921 -2.00268,-1.94722 -2.90625,-3 -0.45179,-0.52639 -0.84341,-1.07334 -1.09375,-1.625 -0.25034,-0.55166 -0.34709,-1.11266 -0.25,-1.6875 0.0803,-0.47535 0.4347,-0.9476 0.84375,-1.4375 z"
       id="path4665"
       inkscape:connector-curvature="0" />
    <path
       style="fill:#ccb3b3;fill-opacity:1;stroke:#000000;stroke-width:1px;stroke-linecap:butt;stroke-linejoin:miter;stroke-opacity:1"
       d="m 444.9883,54.098801 c -14.31875,0.38784 -30.85907,7.20282 -38.75,15.09375 -1.77044,1.77045 -2.93693,6.37442 -5.4375,8.875 -4.49066,4.49066 -8.41645,8.9238 -12.59375,12.9375 -12.33378,-3.87422 -29.26561,-4.625 -41.4375,-4.625 -4.56954,0 -13.30484,-0.93187 -20.1875,-0.875 -3.12848,0.0258 -5.85149,0.27341 -7.65625,0.875 -9.01042,3.00347 -19.34341,-0.90634 -28.59375,1.40625 -12.97546,3.24386 -26.69391,4.00942 -39.28125,7.15625 -13.12847,3.28212 -20.28774,14.208299 -23.9375,19.843749 -4.0143,6.19833 -7.26627,17.68879 -7.0625,22.78125 0.10369,2.59126 -0.17925,11.75657 -0.28125,19.15625 -0.0831,6.02676 0.93369,17.75453 2.34375,23.28125 2.3243,5.12149 9.03477,17.45933 18.9375,25.625 5.53569,2.83675 11.27386,5.08875 17.0625,6.875 0.27781,0.87348 0.62516,1.77307 0.71875,2.59375 -1.20228,6.19435 1.96304,12.55612 0.6875,18.59375 -0.44914,2.12596 1.15416,3.93126 1.34375,5.59375 0.16632,1.45849 -0.008,8.39903 1.0625,9.25 2.42229,1.92638 3.36189,7.81537 6.1875,10.0625 1.87132,1.4882 5.69118,1.98056 7.5625,3.46875 1.35164,1.07492 4.79006,1.06182 6.46875,-0.0312 2.70995,-1.76463 6.01181,-0.24008 8.28125,-3.09375 5.9324,-7.45958 5.63345,-17.89401 7.65625,-27.46875 0.4541,-2.14942 -0.8565,-5.0988 -0.0937,-7.1875 0.13247,-0.36279 0.17916,-2.6781 0.1875,-5.4375 14.09746,0.56769 26.04919,-0.294 32.875,-0.34375 2.37421,-0.0173 5.59059,-0.0889 9.15625,-0.1875 -1.80664,13.40094 -0.99553,32.26299 5.28125,40 1.3059,1.6097 4.39861,2.4195 6.09375,3.5 1.99745,1.27318 4.87673,1.58405 7.09375,0.75 3.36941,-1.26758 6.06569,-1.02864 8.1875,-2.75 2.43743,-1.97741 3.36963,-7.44275 4.65625,-10.28125 1.9682,-4.34219 8.47489,-25.83058 7.59375,-33.625 12.63788,-1.30549 15.86061,-1.07138 22.65625,-3.84375 9.43666,-5.78976 18.33809,-13.08242 21.4375,-19.28125 1.74855,-3.49709 4.64688,-6.48125 6.40625,-10 4.56801,-9.136 7.44631,-20.18269 10.71875,-30 0.0675,-0.20238 0.13126,-0.4141 0.1875,-0.625 9.11457,1.62807 19.00417,-0.4375 27.78125,-0.4375 4.88391,0 14.7605,-1.43233 18.25,-3.53125 2.50942,-1.50941 7.38711,-4.51211 10.96875,-8.09375 1.52711,-1.52711 2.67744,-4.97443 2.5625,-7 -0.55291,-2.73113 -5.06882,-1.17504 -7.59375,-2.4375 -7.04732,-3.52366 -12.42551,-4.58171 -16.625,-8.78125 2.2576,-1.55294 0.61791,-3.50159 3.21875,-3.65625 0.91406,-0.91407 -0.81525,-5.49726 0.53125,-6.84375 0.47619,-0.47619 0.24256,-1.68006 0.71875,-2.15625 1.54616,-1.54615 22.75797,3.4743 33.1875,0.0937 0.14701,-0.43136 0.3011,-0.85219 0.5,-1.25 1.33205,-2.66406 2.24172,-7.04781 2.40625,-10.718749 0.39389,-3.71174 -0.85791,-7.48291 -3.09375,-9.71875 -1.25836,-1.25837 -1.86827,-3.93079 -3.40625,-5.46875 l -9.5625,-9.5625 c -2.26996,-2.26997 -6.33044,-3.58043 -8.875,-6.125 -4.86283,-4.86282 -14.58692,-3.88721 -20.4375,-6.8125 -3.32436,-1.66219 -7.67861,-1.12055 -10.9375,-2.75 -4.27611,-2.13806 -9.52201,-2.96426 -15.125,-2.8125 z"
       id="path3089"
       inkscape:connector-curvature="0"
       sodipodi:nodetypes="csscssssssssccccsscsscssccscsssssccssscssscsccsscccsssssssc" />
    <path
       style="fill:#d8c3c3;fill-opacity:1;stroke:none"
       d="m 445.9883,54.598801 c -1.78984,0.0485 -3.59946,0.19862 -5.4375,0.4375 -1.83804,0.23888 -3.71874,0.56038 -5.5625,0.96875 -3.68752,0.81674 -7.3256,1.9432 -10.78125,3.3125 -3.45565,1.3693 -6.7097,2.99537 -9.59375,4.75 -1.44202,0.87731 -2.79582,1.77646 -4.03125,2.71875 -1.23543,0.94229 -2.35738,1.91988 -3.34375,2.90625 -0.88522,0.88522 -1.612,2.47138 -2.4375,4.15625 -0.41275,0.84244 -0.85509,1.72032 -1.34375,2.53125 -0.48866,0.81093 -1.03111,1.56235 -1.65625,2.1875 -4.49066,4.49066 -8.41645,8.9238 -12.59375,12.9375 -3.08344,-0.96855 -6.45677,-1.72855 -9.96875,-2.34375 -3.51198,-0.6152 -7.16442,-1.07026 -10.8125,-1.40625 -3.64808,-0.33599 -7.2895,-0.55658 -10.78125,-0.6875 -3.49175,-0.13092 -6.83203,-0.1875 -9.875,-0.1875 -2.28477,0 -5.6034,-0.24289 -9.21875,-0.46875 -3.61535,-0.22586 -7.52742,-0.43468 -10.96875,-0.40625 -1.56424,0.0129 -3.01509,0.0784 -4.3125,0.21875 -1.29741,0.14032 -2.44137,0.35546 -3.34375,0.65625 -1.1263,0.37543 -2.27456,0.62745 -3.4375,0.8125 -1.16294,0.18505 -2.34108,0.29777 -3.53125,0.34375 -2.38034,0.0919 -4.81708,-0.031 -7.25,-0.1875 -2.43292,-0.15647 -4.87092,-0.34934 -7.28125,-0.34375 -2.41033,0.006 -4.78117,0.2031 -7.09375,0.78125 -3.24386,0.81097 -6.53629,1.45414 -9.84375,2.03125 -3.30746,0.57711 -6.62502,1.09864 -9.9375,1.59375 -3.31248,0.49511 -6.61606,0.96627 -9.875,1.53125 -3.25894,0.56498 -6.47816,1.21329 -9.625,2 -1.64106,0.41027 -3.19692,0.93862 -4.65625,1.5625 -1.45933,0.62388 -2.80655,1.33803 -4.09375,2.125 -1.2872,0.78697 -2.50032,1.662969 -3.625,2.562499 -1.12468,0.89953 -2.18448,1.81969 -3.15625,2.78125 -1.94355,1.92312 -3.57919,3.91315 -4.96875,5.78125 -1.38956,1.8681 -2.52506,3.62239 -3.4375,5.03125 -1.00358,1.54958 -1.9463,3.44031 -2.8125,5.46875 -0.77431,1.81326 -1.48864,3.73732 -2.09375,5.65625 -0.0718,0.22772 -0.15036,0.46028 -0.21875,0.6875 -0.01,0.0323 -0.0216,0.0615 -0.0312,0.0937 -0.0869,0.27318 -0.16798,0.53997 -0.25,0.8125 -0.64465,2.14198 -1.16106,4.23479 -1.5,6.125 -0.33894,1.89021 -0.48844,3.57064 -0.4375,4.84375 0.10369,2.59126 -0.17925,11.75657 -0.28125,19.15625 -0.0416,3.01338 0.20493,7.46762 0.625,11.84375 0.42007,4.37613 1.01372,8.67414 1.71875,11.4375 0.58107,1.28037 1.45181,3.02678 2.5625,5.03125 1.11069,2.00447 2.4595,4.25232 4.0625,6.625 0.98206,1.4536 2.21945,2.95341 3.375,4.4375 0.40744,-0.3429 0.81691,-0.59816 1.21875,-1 0.63255,-0.63255 -2.70973,-13.88822 -3.53125,-15.53125 -0.75399,-1.50798 -0.0384,-5.00722 -1.40625,-6.375 -1.43059,-1.43059 -0.81563,-5.75313 -2.125,-7.0625 -1.43873,-1.43872 -1.10407,-8.41686 0,-10.625 1.47669,-2.95337 -0.0905,-7.60025 1.40625,-10.59375 4.89107,-9.78215 7.70038,-15.45039 16.28125,-24.03125 2.1763,-2.1763 5.88279,-2.26953 8.46875,-3.5625 4.4986,-2.2493 12.48928,-5.39553 15.5625,-8.46875 1.99527,-1.99528 19.60062,-5.98628 23.125,-9.03125 5.76441,0.0241 12.67031,0.78985 14.9375,-0.34375 4.25301,-2.126499 13.13414,-0.5 18,-0.5 l 37.5,0 c 2.42986,0 19.00327,0.99837 20,0.5 1.32791,-0.66395 3.22718,0.13641 4.5,-0.5 4.24,-2.119999 21.98979,-6.489789 24,-8.499999 4.23655,-4.23655 5.33736,-10.83736 9.5,-15 1.41003,-1.41003 3.04141,-3.54141 4,-4.5 1.95283,-1.95282 4.89193,-2.39193 6.5,-4 0.86276,-0.86276 3.28412,-0.28412 4,-1 1.87127,-1.87127 5.05322,-0.77661 7.5,-2 7.87492,-3.93746 19.50208,-1.57339 27,-6.15625 -0.88792,-0.19336 -1.8056,-0.30563 -2.71875,-0.4375 -0.95573,-0.13802 -1.89406,-0.29566 -2.8125,-0.5 -0.91844,-0.20433 -1.81028,-0.46764 -2.625,-0.875 -1.06903,-0.53451 -2.19432,-0.99925 -3.375,-1.375 -1.18068,-0.37575 -2.41432,-0.64758 -3.6875,-0.875 -2.54636,-0.45484 -5.26101,-0.63838 -8.0625,-0.5625 z"
       id="path4763"
       inkscape:connector-curvature="0" />
    <path
       style="fill:#ffffff;fill-opacity:1;stroke:#000000;stroke-width:1;stroke-linecap:butt;stroke-linejoin:miter;stroke-miterlimit:4;stroke-dasharray:none;stroke-opacity:1"
       d="m 484.89095,60.748441 c -3.97212,-0.87238 -8.92731,3.80084 -10.21381,7.66036 -0.32133,0.96398 0.19177,1.42648 0.42557,2.12788 1.49743,4.49229 2.80043,6.46596 7.66036,8.08594 19.94717,6.64905 17.97308,-21.04322 2.12788,-17.87418 z"
       id="path3318"
       inkscape:connector-curvature="0" />
    <path
       style="fill:#ffffff;stroke:#000000;stroke-width:1px;stroke-linecap:butt;stroke-linejoin:miter;stroke-opacity:1"
       d="m 461.28908,61.532391 c -5.12511,-0.22315 -7.36301,3.42136 -10.12513,6.02141 -1.64997,1.55315 -2.44482,4.27861 -1.77831,6.49967 0.72947,2.43087 0.21705,3.49291 2.53186,5.95201 1.62373,1.72494 15.30506,4.45711 17.78836,2.11952 1.38979,-1.30824 5.57796,-1.83706 6.43086,-3.42131 5.2741,-9.7966 -4.62076,-18.13691 -14.84764,-17.1713 z"
       id="path3290"
       inkscape:connector-curvature="0" />
    <path
       style="fill:#6c5353;stroke:#000000;stroke-width:1px;stroke-linecap:butt;stroke-linejoin:miter;stroke-opacity:1"
       d="m 465.26955,65.367231 c -5.07175,-1.43118 -9.2848,9.7152 -7,12 0.56141,0.56141 6.94296,5.55704 9,3.5 0.98213,-0.98213 3.6149,-2.1149 5,-3.5 1.23528,-1.23527 0.30926,-3.11851 1,-4.5 2.51205,-5.0241 -4.01662,-5.90665 -8,-7.5 z"
       id="path4101"
       inkscape:connector-curvature="0" />
    <path
       style="fill:#6c5353;stroke:#000000;stroke-width:1px;stroke-linecap:butt;stroke-linejoin:miter;stroke-opacity:1"
       d="m 487.76955,63.867231 c -1.33464,-0.13704 -2.68685,-1.81314 -6,1.5 -4.48609,4.4861 0.74749,13.12626 7,10 0.30189,-0.15094 1.26887,0.23113 1.5,0 0.5,-0.5 1.5,-0.5 2,-1 4.84952,-4.84951 2.18186,-11.83637 -4.5,-10.5 z"
       id="path4116"
       inkscape:connector-curvature="0" />
    <path
       style="fill:#ccb3b3;fill-opacity:1;stroke:#000000;stroke-width:1px;stroke-linecap:round;stroke-linejoin:miter;stroke-opacity:1"
       d="m 469.26955,129.36723 c 7.60159,-7.60159 11.03469,-7.89368 10.75,-20.25 -0.24436,-0.75814 -0.25,-1.29749 -0.25,-2 0,-1.90233 0.18833,-4.12334 -0.5,-5.5 -0.93125,-1.862489 -2.75,-3.563719 -2.75,-4.999999"
       id="path4131"
       inkscape:connector-curvature="0"
       sodipodi:nodetypes="cc" />
    <path
       style="fill:#000000;stroke:#000000;stroke-width:1px;stroke-linecap:butt;stroke-linejoin:miter;stroke-opacity:1"
       d="m 466.51955,68.867231 c -0.47378,-0.0443 -1.43033,0.18033 -2.75,1.5 -2.70769,2.70769 2.78686,8.96315 5.25,6.5 0.23879,-0.23879 1.21441,-0.21441 1.5,-0.5 2.49386,-2.49385 0.34057,-9.23622 -4,-7.5 z"
       id="path4176"
       inkscape:connector-curvature="0" />
    <path
       style="fill:#000000;stroke:#000000;stroke-width:1px;stroke-linecap:butt;stroke-linejoin:miter;stroke-opacity:1"
       d="m 488.26955,65.867231 c 0.0253,-0.4674 -2.69021,-0.36957 -3.5,1.25 -0.30957,0.61914 -1.88836,3.61164 -1,4.5 0.34346,0.34346 0.81735,1.40868 1.5,1.75 1.08149,0.54075 4.00109,0.99892 5,0 2.58523,-2.58522 3.39212,-8.57842 -2,-7.5 z"
       id="path4178"
       inkscape:connector-curvature="0" />
    <path
       style="fill:#6c5353;stroke:#000000;stroke-width:1px;stroke-linecap:round;stroke-linejoin:round;stroke-opacity:1"
       d="m 453.96593,50.148741 c -4.21521,-0.022 -8.41224,0.722 -12.6298,0.37718 -5.44212,0.0595 -11.25249,1.16013 -15.47636,4.81047 -1.37903,1.07282 -4.01693,0.77767 -4.53486,2.69265 1.07249,1.06302 3.2807,-0.30695 4.59275,-0.88088 3.43557,-1.40699 5.09569,-3.42903 6.40133,-2.9543 -2.51239,1.15475 -5.53283,3.71291 -8.30405,4.11864 -0.98304,0.0507 -4.27314,1.69256 -1.48338,1.51356 7.95953,0.0238 -2.45723,-0.3615 -3.07276,2.84526 0.41938,2.00959 3.00759,1.95214 4.54738,1.36158 1.87623,-0.72444 3.85698,-0.87945 5.82937,-1.11227 3.30327,-0.40988 6.71705,-0.89286 10.00972,-0.26249 2.73858,1.08398 5.51399,2.08378 8.34987,2.88386 2.25053,-0.95196 -0.83778,-2.9564 -2.06496,-3.34928 -2.21563,-0.69791 -4.70976,-0.53644 -6.81573,-1.61302 1.45606,-0.25772 4.86829,0.28345 7.06808,0.40746 3.18386,0.3662 6.37747,0.57158 9.5109,1.24842 2.45297,0.48523 1.06652,-1.9516 -0.50685,-1.9636 -2.67208,-0.79214 -5.59348,-0.15671 -8.19065,-1.29965 -4.61397,-1.12045 -9.36798,-0.1236 -14.02854,0.0667 -1.15189,0.23471 -4.92752,0.5661 -2.14428,-0.53858 2.40668,-1.28926 5.13991,-2.47334 7.92281,-1.82002 4.60307,0.53424 9.1847,1.31849 13.81017,1.59674 2.52508,0.43644 4.68596,2.10677 7.24506,2.35601 -2.69587,-1.9011 -5.14847,-4.67746 -8.66426,-4.87689 -6.19616,-1.07435 -12.4963,-0.2259 -18.67329,0.55015 4.26405,-1.98543 8.95734,-3.93265 13.75204,-2.94546 4.3573,0.51618 9.10359,0.99363 12.56123,3.98585 1.24674,0.79949 3.47351,2.96848 4.36968,2.50697 -1.61659,-2.69241 -4.56816,-4.10276 -6.65146,-6.36351 -0.90052,-0.83139 -3.4523,-0.98971 -3.67742,-1.38934 3.70665,-0.0705 7.5845,-0.20886 11.01659,1.43142 2.78795,0.84292 4.52773,3.33319 6.62359,5.17505 0.51153,1.26097 3.2208,4.83684 3.52164,1.73149 -1.42974,-2.94363 -3.82649,-5.35585 -6.42541,-7.27953 -4.20475,-2.28121 -9.07984,-2.85287 -13.78815,-3.0106 z"
       id="path4469"
       inkscape:connector-curvature="0"
       sodipodi:nodetypes="cccccccccccccccccccccccccccccccccccc" />
    <path
       style="fill:#d8c3c3;fill-opacity:1;stroke:#000000;stroke-width:1px;stroke-linecap:round;stroke-linejoin:miter;stroke-opacity:1"
       d="m 412.01955,67.367231 c -3.41864,-2.31955 -9.40985,-13.52045 -6.75,-21.5 0.54865,-1.64593 0.90506,-3.45253 2.5,-4.25 3.17169,-1.58584 4.8726,2.6226 6.75,4.5 0.90448,0.90448 1.34552,2.34552 2.25,3.25 4.52037,4.52037 6.5,9.55655 6.5,16"
       id="path4301"
       inkscape:connector-curvature="0" />
    <path
       style="fill:none;stroke:#000000;stroke-width:1px;stroke-linecap:butt;stroke-linejoin:miter;stroke-opacity:1"
       d="m 500.26955,102.86723 c -0.33333,0.0833 -0.91667,0.58334 -1,0.25 -0.0833,-0.33333 1.24296,-0.49295 1,-0.25 -0.96621,0.96621 -1.24995,0.2499 -1.75,1.25 -2.99505,5.9901 7.65215,-0.0696 1.75,-1.25 z"
       id="path4318"
       inkscape:connector-curvature="0" />
    <path
       style="fill:none;stroke:#000000;stroke-width:1px;stroke-linecap:butt;stroke-linejoin:miter;stroke-opacity:1"
       d="m 509.26955,102.86723 c -0.33333,0 -1,0.33333 -1,0 0,-0.33333 1.2357,-0.2357 1,0 -1.38679,1.38679 -0.86176,-0.27648 -1.5,1 -1.04333,2.08666 0.72285,4.02715 2.25,2.5 0.32194,-0.32194 0.0675,-0.88495 0.25,-1.25 0.59265,-1.1853 0.23105,-1.51137 -1,-2.25 z"
       id="path4320"
       inkscape:connector-curvature="0" />
    <path
       style="fill:#6c5353;fill-opacity:1;stroke:#000000;stroke-width:1px;stroke-linecap:round;stroke-linejoin:round;stroke-opacity:1"
       d="m 400.26955,74.786301 c -3.19707,0.34704 -5.11741,5.57096 -8.59375,2.90625 -3.29518,1.32213 -6.63929,0.66615 -9.6875,-0.1875 -1.8481,0.30199 -4.91956,5.17456 -5.1875,1.21875 -1.96445,-2.76041 -4.78408,1.3913 -7.5625,0.90625 -1.82221,-0.33941 -4.48714,3.2191 -4.59375,2.125 -1.45026,-3.65388 -6.62983,-1.38676 -8.25,0.71875 -2.24105,0.0162 -2.0662,-0.92568 -3.75,0.5 -1.09758,0.5828 -2.33342,0.94687 -2.9375,-0.625 -1.82846,-1.29075 -3.41292,0.0926 -4.84375,0.71875 -0.17673,0.50036 -0.37289,1.00136 -0.5625,1.5 -1.31154,-1.34221 -3.84742,-2.00475 -5.8125,-1.03125 -0.85684,-0.39441 -1.27441,-1.40616 -2.21875,-1.65625 -5.17051,4.2251 -4.82957,13.11002 -8.375,18.531249 0.13513,2.50678 -1.04499,8.01967 0.71875,8.75 0.62666,-5.25221 2.5531,-10.268589 4.5625,-15.124999 0.87645,-1.43518 1.98917,-5.09475 3.40625,-4.8125 -0.40991,2.96553 -1.90829,5.73054 -1.90625,8.8125 -0.90844,7.344579 -0.1443,14.742179 0.625,22.062499 1.84583,2.86458 1.57283,-3.32709 1.3125,-4.5625 -0.23717,-4.70323 -1.77389,-9.92478 1.1875,-14.125 0.17894,-0.3909 0.32809,-0.80667 0.5,-1.21875 -0.76651,2.84257 -1.20256,5.75157 -1.0625,8.78125 3.69647,0.36804 3.01439,-5.51736 4.25,-7.96875 0.21721,-1.243079 1.69562,-4.145199 0.96875,-1.187499 -1.16426,7.683369 -1.23852,15.479719 -1.75,23.218749 -0.45292,1.74704 0.65369,5.52649 1.3125,1.78125 1.01063,-5.90172 0.87917,-11.95456 2.15625,-17.8125 0.63536,0.70415 -1.04762,7.13022 1.25,6.84375 0.95259,-2.08856 1.10793,-6.83715 2.5,-7.28125 0.87468,6.00007 -1.14112,12.10718 0.15625,18.0625 1.97086,2.68713 2.05537,-3.18318 1.84375,-4.59375 -0.56132,-4.38988 0.12407,-8.75665 0.125,-13.15625 0.15033,-3.47672 0.41955,-6.972309 1,-10.406249 1.4266,-2.13255 1.65847,-4.25889 2.75,-4.4375 -1.12283,6.18918 -1.82445,8.845959 -2.34375,15.124999 -0.0988,2.68114 2.39476,1.99217 1.9375,-0.28125 0.97994,-3.4182 0.86924,2.67499 0.71875,3.6875 -0.2019,1.41348 -1.28246,2.93571 -0.15625,5.40625 2.00363,-3.07105 2.60039,-10.5095 2.375,-13.5625 1.74069,-2.0469 4.02666,-7.504679 4.09375,-6.624999 -0.98109,6.502859 -2.09331,13.097369 -1.3125,19.687499 -0.0625,1.41714 -0.0628,7.35005 0.6875,3.28125 0.80509,-4.28686 0.56121,-8.85146 2.46875,-12.875 -0.38829,4.99429 -1.42959,10.31219 0.625,15.09375 -0.32248,2.10403 2.40101,3.86566 1.84375,0.75 0.37514,-6.34729 0.10529,-12.77195 1.40625,-19.03125 1.30674,-1.59954 1.69956,-8.072549 4.25,-3.812499 0.45719,3.267889 -1.7907,6.274659 -1.84375,9.593749 -0.68234,3.91528 -0.0581,7.86866 0.65625,11.71875 0.31611,3.68579 -0.17756,7.38477 -0.375,11.0625 3.51538,-3.28247 0.88154,-8.74029 3.625,-12.4375 2.29179,-4.53134 0.013,-9.7767 1.84375,-14.40625 1.45475,-3.72197 1.25303,-4.886939 1.59375,-8.968749 1.39071,0.75588 0.93225,1.3073 0.96875,2.5 -1.0952,4.657239 -1.51034,9.596829 -0.5625,14.281249 2.64264,-0.46752 0.99856,-5.18009 1.5,-7.46875 0.006,-2.81101 0.0593,-5.662709 0.875,-8.374999 2.1125,-0.52235 1.71981,1.91365 1.8125,5.218749 1.00084,5.94113 0.67636,15.17922 1.21875,21.625 0.22787,2.95128 3.2762,7.15344 2.46875,3.71875 0.37898,-5.27771 -0.4374,-10.5642 -0.25,-15.84375 0.91804,4.07907 1.45289,8.34692 3.5,12.0625 1.93452,-3.72214 -0.82645,-7.83989 -0.40625,-11.78125 -0.7051,-5.64243 -1.16868,-11.511889 0.53125,-17.031249 2.2148,-3.1098 0.13387,3.18036 0.78125,4.375 0.65998,3.975669 1.42188,7.929099 1.8125,11.937499 1.02734,4.82346 3.05102,9.37915 4,14.21875 1.5987,2.82631 3.44421,0.24651 1.84375,-1.71875 -1.31454,-5.17406 -3.97765,-10.06546 -4.34375,-15.4375 -0.046,-6.75889 1.87581,-13.320309 3.75,-19.749999 0.99177,3.25211 -0.31328,6.86485 0.96875,10.15625 0.905,2.677039 -1.20638,7.596939 2.40625,8.968749 -0.70337,-5.65609 -0.76408,-11.371489 -0.53125,-17.062499 1.34261,-3.78037 3.23142,-7.47607 3.375,-11.5625 -1.49469,-0.74028 0.52735,-3.55733 -0.6875,-3.6875 -0.22521,-0.024 -0.44311,-0.0231 -0.65625,0 z m -63.53125,7.21875 c 1.00177,0.87105 0.98996,0.43003 0,0 z"
       id="path4702"
       inkscape:connector-curvature="0"
       sodipodi:nodetypes="scccccccccccccccccccccccccccccccccccccccccccccccccccccccccccccccccccccccccccscc" />
    <path
       style="fill:#c3a9a9;fill-opacity:1;stroke:none"
       d="m 476.88291,125.55591 c -0.20914,-0.0424 -0.40299,0.0168 -0.59375,0.25 -5.24975,5.08973 -11.99557,10.16954 -19.90625,8.96875 -6.80959,-0.21525 -15.78586,-2.16364 -19.90625,4.90625 -5.3532,6.23985 -7.46203,14.23123 -9.34375,21.96875 -3.45271,6.7851 -5.43534,14.77927 -12.34375,18.96875 -3.7502,3.35695 -8.68117,4.84375 -11.78125,8.96875 -7.34712,7.10991 -17.61771,9.06821 -26.90625,12.28125 -4.96166,0.14188 -9.14407,2.5198 -14.25,2.25 -13.352,4.01206 -27.74318,5.75798 -41.53125,3.0625 -6.74357,1.42839 -13.1457,-1.39968 -19.90625,-1.28125 -4.13211,-0.9295 -8.50622,0.46674 -12.71875,-0.78125 -7.98507,-0.0752 -15.47531,-2.84606 -23.0625,-5.03125 -0.86753,1.4e-4 -1.70085,-0.11721 -2.53125,-0.21875 0.10663,0.52511 0.20158,1.18731 0.3125,1.65625 0.40413,1.7086 0.84225,2.9985 1.34375,3.5 1.25121,1.25121 2.37397,2.54257 3.40625,3.90625 1.03228,1.36368 1.98128,2.79061 2.8125,4.28125 0.83122,1.49064 1.53947,3.0554 2.1875,4.6875 0.64803,1.6321 1.23606,3.33695 1.71875,5.125 0.48269,1.78805 0.88353,3.63526 1.21875,5.59375 0.33522,1.95849 0.57563,4.01283 0.78125,6.15625 0.41124,4.28684 0.59375,8.94897 0.59375,14.0625 0,1.88558 -0.41876,4.96352 -0.625,7.96875 -0.0822,1.1978 -0.085,2.33678 -0.0625,3.4375 2.60371,1.64129 5.54287,1.47516 8.1875,-0.125 3.63635,0.0358 6.72961,-1.50375 7.71875,-5.125 3.49817,-7.84597 4.18022,-16.92701 5.09375,-25.3125 -0.8659,-4.04876 0.64791,-8.07239 0.0937,-12.1875 15.43783,0.71332 30.87537,-0.34894 46.3125,-0.53125 -0.079,0.74152 -0.14152,1.53009 -0.21875,2.28125 0.52629,-0.28519 0.95551,-0.65151 1.5,-0.90625 1.32876,-0.62165 2.60456,-1.19832 3.40625,-2 0.32637,-0.32637 1.28132,-0.92107 2.375,-1.3125 0.54684,-0.19572 1.11856,-0.33822 1.6875,-0.375 0.56894,-0.0368 1.11586,0.0111 1.59375,0.25 0.88626,0.44313 1.65104,1.20612 2.28125,2.15625 0.63021,0.95013 1.1341,2.09325 1.53125,3.3125 0.39715,1.21925 0.68792,2.53077 0.875,3.78125 0.18708,1.25048 0.28125,2.45618 0.28125,3.5 0,1.28379 -0.4661,3.31365 -1.125,5.75 -0.6589,2.43635 -1.51075,5.27112 -2.25,8.15625 -0.73925,2.88513 -1.38394,5.80736 -1.625,8.4375 -0.12053,1.31507 -0.14375,2.56814 -0.0312,3.6875 0.1125,1.11936 0.36341,2.10181 0.78125,2.9375 0.60822,1.21644 1.28111,3.06425 1.9375,4.78125 1.72786,0.20539 3.47527,0.13945 5.1875,-0.8125 4.96852,0.14814 7.25614,-4.15221 8.03125,-8.46875 4.19982,-11.87704 8.91445,-24.39233 8.25,-37.28125 10.53065,-1.28838 22.2339,-0.50948 30.5625,-8.28125 7.3387,-4.77534 12.82953,-11.34611 16.96875,-18.8125 7.8976,-10.92833 10.15467,-24.62748 14.625,-37.15625 12.18624,2.08206 24.66148,-0.2515 36.90625,-0.84375 8.31064,-0.78298 16.38854,-5.61838 21.25,-12.1875 0.85899,-1.73012 1.55144,-4.41701 -1.5,-3.59375 -6.28942,-0.72476 -11.9682,-4.39433 -17.59375,-7.03125 -0.67,-0.18583 -1.37258,-1.24782 -2,-1.375 z"
       id="path4731"
       inkscape:connector-curvature="0" />
    <path
       style="fill:#ccb3b3;fill-opacity:1;stroke:none"
       d="m 422.70797,65.680911 c -0.02,-1.45439 -0.11018,-2.8667 -0.34375,-4.1875 -0.25622,-1.44889 -0.65752,-2.81024 -1.1875,-4.125 -0.52998,-1.31476 -1.17873,-2.57275 -2,-3.78125 -0.82127,-1.2085 -1.80741,-2.36991 -2.9375,-3.5 -0.90448,-0.90448 -1.34552,-2.34553 -2.25,-3.25 -0.9387,-0.93871 -1.81864,-2.47395 -2.875,-3.5625 -0.52818,-0.54428 -1.11519,-0.98664 -1.75,-1.1875 -0.13108,-0.0415 -0.30055,0.0828 -0.4375,0.0625 -1.02358,5.70986 0.26622,12.12617 2.625,16.84375 0.71977,1.43953 2.59828,3.12953 3.53125,4.0625 0.26019,0.26019 0.89114,0.39114 1.21875,0.71875 1.18513,1.18513 4.03921,2.58774 6.40625,1.90625 z"
       id="path4785"
       inkscape:connector-curvature="0" />
    <path
       style="fill:none;stroke:#000000;stroke-width:1px;stroke-linecap:round;stroke-linejoin:round;stroke-opacity:1"
       d="m 414.71813,65.180301 c -2.1671,-2.0554 -6.54074,-9.75798 -6.54074,-15.55635 0,-0.6687 -0.34914,-1.24185 0.17677,-1.76776 0.47141,-0.47141 -0.11785,-2.00347 0.35356,-2.47488 0.49109,-0.49109 2.33665,1.62955 2.65165,1.94455 1.74468,1.74468 3.47219,3.58562 4.77297,6.18718 0.36288,0.72576 0.17332,1.76085 0.53033,2.47487 0.25587,0.51174 0.53033,1.35376 0.53033,1.94455 0,1.66228 1.06066,3.45291 1.06066,5.12652 0,0.73326 0.15749,2.10204 0,1.94454"
       id="path4811"
       inkscape:connector-curvature="0" />
    <path
       style="fill:#6c5353;fill-opacity:1;stroke:#000000;stroke-width:1px;stroke-linecap:round;stroke-linejoin:round;stroke-opacity:1"
       d="m 236.0508,100.7238 c -1.22901,0.0318 -2.41757,0.18583 -3.59375,0.46875 -6.93335,1.6679 -12.78234,7.35962 -16.65625,13.21875 -1.05064,0.89669 -2.01168,1.83777 -2.875,2.8125 -0.92259,0.28919 -4.40113,5.55197 -4.90257,6.5533 -0.86515,1.72762 -2.28302,7.19252 -4.91177,14.56802 -0.0488,1.45334 -0.18688,4.57778 -0.21875,6 -0.12804,5.71348 2.49528,17.9287 4.3125,21.15625 0.23044,0.40928 1.38224,-1.801 0.47671,-3.06158 -0.0633,-1.53098 -0.0691,-2.35161 -0.63572,-3.58671 -0.62158,-1.35494 -1.2012,-4.93728 -1.40349,-6.41421 -0.49517,-3.61526 0.50843,-14.23041 3.06158,-19.53585 -1.73871,6.47778 -2.96824,9.0491 -1.40349,16.78953 0.51258,2.53563 0.97987,9.52291 2.6875,10.65625 0.90695,0.60194 1.56524,9.29078 2.65625,10.6875 1.56353,2.00169 6.17309,18.14257 7.1875,17.9375 1.90909,-0.38593 -1.3198,-9.21061 -1.65625,-10.875 -0.78068,-3.86175 -3.19544,-11.22744 -5.25,-18.78125 -0.62743,-5.40404 -1.13544,-12.46237 -0.8125,-13.65625 0.29332,-1.08431 -0.50944,-5.63744 0.1875,-6.6875 0.85633,-1.29027 0.50247,-3.31257 0.5,-5.09375 0.4387,1.47538 0.93896,2.95739 1.46875,4.40625 0.11504,1.10409 0.21801,2.28297 0.34375,3.53125 0,0.80812 -0.0415,1.57442 -0.25,2.34375 -1.06003,3.91872 2.52984,13.87091 1.53125,17.5625 -0.67413,2.49207 4.97424,12.11795 5.5,14.71875 0.0208,0.10296 0.2296,0.55444 0.28125,0.71875 0.63889,2.03239 3.2969,7.96481 3.875,7.09375 1.03695,-1.5624 -2.75092,-9.12988 -3.3125,-11.40625 0.28917,0.22719 -0.46361,-3.41713 -0.18566,-3.20159 -0.8341,-2.26183 -1.41616,-4.57039 -1.65809,-5.76716 -0.0284,-0.14058 -0.208,-0.54799 -0.28125,-0.75 -0.5764,-1.58951 -2.19043,-4.64078 -1.6875,-6.5 0.81313,-3.00597 -1.33076,-7.96016 -0.78125,-10.8125 0.57162,0.96207 1.12462,1.70939 1.5625,2 0.39472,0.26197 0.51935,0.96846 0.65625,1.71875 0.14726,0.80702 0.27228,1.65096 0.59375,2.0625 0.89839,1.15014 3.39814,13.03787 3.91637,12.25704 1.22638,-1.84783 0.68973,-5.47158 -0.43046,-8.45526 -1.68038,-4.47582 -1.85717,-9.66566 -3.92341,-15.20803 -0.68647,-1.84134 -1.49772,-3.57828 -2.0625,-5.5 -0.0328,-0.81283 -0.0794,-1.58527 -0.0937,-2.375 0.95781,-2.76871 2.44803,-5.87237 3.125,-8.375 0.48235,-1.78316 1.32062,-3.2406 2.375,-4.53125 0.71322,-0.19534 1.26264,-0.57308 1.84375,-0.90625 0.30441,-0.17453 0.72046,-0.23658 0.96875,-0.46875 0.31034,-0.29018 0.11996,-0.67975 -0.1875,-1.0625 -0.0257,-0.032 -0.035,-0.0615 -0.0625,-0.0937 0.0638,-0.052 0.12139,-0.10471 0.1875,-0.15625 0.34196,-0.62442 0.64418,-1.38809 1,-1.9375 0.91244,-1.40886 2.04794,-3.16315 3.4375,-5.03125 0.72722,-0.97765 1.71982,-2.01214 2.59375,-3.03125 -2.74926,-0.43744 -6.24454,0.74886 -7.4375,2.4375 -1.10844,0.54097 -2.20773,1.13361 -3.28125,1.75 1.33473,-1.08653 3.11385,-2.07149 3.9375,-3.3125 0.59029,-0.88942 3.60175,-0.97657 4.21875,-1.90625 0.12546,-0.18904 0.27704,-0.28753 0.5,-0.34375 0.10148,-0.0256 0.22672,-0.0578 0.34375,-0.0625 0.65304,-0.0266 1.58685,0.28706 2.46875,0.5625 0.57115,-0.63455 0.99241,-1.24906 1.625,-1.875 0.97177,-0.96156 2.03157,-1.88172 3.15625,-2.78125 0.0966,-0.0773 0.21469,-0.14212 0.3125,-0.21875 -0.56109,-0.0886 -1.13715,-0.22266 -1.6875,-0.25 -0.41647,-0.0207 -0.84033,-0.0106 -1.25,0 z m -10.42678,11.35539 c -0.73726,0.80568 -1.53043,2.49829 -2.11427,3.32139 -1.47233,1.18333 -2.9507,0.59452 -3.19363,0.55085 0.6909,-0.84627 4.32673,-3.16733 5.3079,-3.87224 z"
       id="path4965"
       inkscape:connector-curvature="0"
       sodipodi:nodetypes="ccccscssccscssssccccccccscssccscscsccsssccscsccccsscccsscccssccsccccc" />
    <path
       style="fill:#614a4a;fill-opacity:1;stroke:none"
       d="m 393.95705,84.348801 c -1.00161,2.38316 -3.75555,3.53286 -6.09375,3 -0.47179,3.30709 -4.81783,7.01964 -7.28125,3.125 -1.32474,-1.91538 -4.74915,-0.57281 -6.46875,0.125 -3.97293,3.53011 -9.62207,3.25235 -13.46875,-0.28125 -2.59888,-0.89619 -5.96727,1.10426 -5.28125,4.25 -0.32538,2.01002 -2.1005,9.752479 -1,8.468749 1.09079,-3.111779 2.83269,-7.100339 5.53125,-9.343749 4.47199,-0.43695 1.3793,5.67638 2,7.187499 2.03199,-1.398679 4.16025,-1.688939 4.8125,-4.374999 3.47729,-3.39166 7.28506,2.56732 5.40625,5.874999 -0.7157,4.08055 1.5358,-1.10723 1.40625,-2.499999 0.80396,-2.90626 -1.09244,-10.25978 3.71875,-6 1.99971,0.52045 5.32093,0.68003 5.15625,3.90625 0.055,3.853239 0.24935,5.926799 0.6875,9.437499 1.21186,-2.86889 0.20064,-3.14976 0.34375,-5.78125 2.3852,-3.070049 0.48428,-10.061869 5.875,-9.937499 2.7363,0.84765 -0.0781,6.66863 1.53125,5.8125 0.79878,-4.30041 2.78614,-9.10278 3.125,-12.96875 z m 3.28125,2.6875 c 2.90505,-3.81264 -2.16013,-4.44566 0,0 z m -45.96875,3.96875 c -1.84222,2.38844 -4.7908,4.99297 -6.625,6.71875 0.0443,2.688299 -1.52136,6.700649 1.3125,7.874999 4.37814,-1.60723 1.40103,-7.753899 3.78125,-10.843749 -0.0352,-0.75092 3.02617,-4.68438 1.53125,-3.75 z m -11.46875,1.71875 c -1.09517,-0.10333 -3.70168,2.90473 -3.125,5.53125 1.26066,-1.59992 3.43884,-0.0306 4.09375,-0.6875 -1.62311,-2.35031 3.38868,-5.18552 -1.40625,-5.4375 l 0.4375,0.59375 z"
       id="path5105"
       inkscape:connector-curvature="0" />
    <path
       style="fill:none;stroke:#000000;stroke-width:1px;stroke-linecap:butt;stroke-linejoin:miter;stroke-opacity:1"
       d="m 225.6133,112.06755 c -0.98117,0.70491 -4.6216,3.02873 -5.3125,3.875 0.12147,0.0218 0.57225,0.18276 1.15625,0.1875 0.584,0.005 1.32634,-0.12708 2.0625,-0.71875 0.58384,-0.8231 1.35649,-2.53807 2.09375,-3.34375 z"
       id="path5211"
       inkscape:connector-curvature="0" />
    <path
       style="fill:none;stroke:#000000;stroke-width:1px;stroke-linecap:butt;stroke-linejoin:miter;stroke-opacity:1"
       d="m 225.6133,112.06755 c -0.73726,0.80568 -1.50991,2.52065 -2.09375,3.34375 -0.73616,0.59167 -1.4785,0.72349 -2.0625,0.71875 -0.584,-0.005 -1.03478,-0.16567 -1.15625,-0.1875 0.6909,-0.84627 4.33133,-3.17009 5.3125,-3.875 z"
       id="path5209"
       inkscape:connector-curvature="0" />
    <path
       style="fill:#614a4a;fill-opacity:1;stroke:none"
       d="m 232.9258,103.13005 c -2.72301,0.67889 2.68537,-0.11393 0,0 z m -4.875,6.59375 c -2.83905,3.66315 -9.21101,1.71308 -10.34375,7 -3.57513,5.56263 -6.29329,12.79415 -2.3125,18.71875 0.31976,2.51173 3.93222,11.38711 3.40625,7.40625 -2.09074,-4.95798 -4.49661,-10.5737 -1.125,-15.5625 1.60081,-3.5249 1.93154,-8.48383 5.96875,-10.21875 0.57982,-1.87044 3.15302,-5.30326 4.40625,-7.34375 z m -13.09375,4.375 c 0.74077,5.29714 7.8357,-3.79061 0,0 z m 1.09375,1.6875 c -0.0501,1.94229 1.602,-0.34497 0,0 z m -5.25,10.3125 c 0.80848,5.23057 3.06473,-1.91655 0,0 z m 7.375,37.65625 c 0.19586,0.35653 -0.14445,-0.42096 0,0 z m 0.0625,0.0937 c 0.39085,1.59197 0.49816,1.05026 0,0 z"
       id="path5207"
       inkscape:connector-curvature="0" />
  </g>
</svg>
